<svg width="353" height="338" viewBox="0 0 353 338" fill="none" xmlns="http://www.w3.org/2000/svg">
<g clip-path="url(#clip0)">
<path d="M11.5472 209.029C11.4925 208.965 11.4536 208.888 11.4338 208.806C4.06298 178.341 5.30222 146.424 15.0131 116.623C24.7239 86.8214 42.5239 60.3088 66.4243 40.047C90.3247 19.7852 119.384 6.57232 150.356 1.88461C181.328 -2.8031 212.993 1.21896 241.812 13.5014C241.877 13.5291 241.936 13.5694 241.986 13.6199C242.035 13.6704 242.074 13.7302 242.101 13.7958C242.127 13.8615 242.14 13.9317 242.14 14.0025C242.139 14.0732 242.125 14.1432 242.097 14.2083C242.069 14.2735 242.029 14.3325 241.978 14.3821C241.928 14.4317 241.868 14.4708 241.803 14.4973C241.737 14.5238 241.667 14.5371 241.596 14.5364C241.525 14.5358 241.455 14.5212 241.39 14.4935C182.429 -10.5954 115.523 -0.370605 66.7828 41.1778C18.3402 82.4726 -2.46686 146.607 12.4814 208.553C12.5098 208.671 12.4978 208.795 12.4471 208.905C12.3964 209.015 12.3101 209.105 12.2021 209.16C12.0941 209.215 11.9707 209.232 11.8519 209.208C11.733 209.185 11.6257 209.121 11.5472 209.029V209.029Z" fill="#E6E6E6"/>
<path d="M110.022 324.709C109.943 324.617 109.897 324.501 109.893 324.38C109.888 324.258 109.924 324.139 109.996 324.041C110.067 323.943 110.17 323.872 110.287 323.84C110.404 323.807 110.528 323.815 110.64 323.862C169.38 348.479 235.963 338.118 284.407 296.823C333.606 254.884 354.498 190.415 338.932 128.577C338.915 128.508 338.911 128.437 338.921 128.367C338.932 128.297 338.956 128.229 338.992 128.168C339.028 128.108 339.076 128.055 339.133 128.012C339.19 127.97 339.254 127.94 339.323 127.922C339.392 127.905 339.463 127.902 339.533 127.912C339.603 127.922 339.67 127.946 339.731 127.983C339.792 128.019 339.845 128.067 339.887 128.124C339.929 128.181 339.96 128.245 339.977 128.314C347.531 158.363 346.573 189.924 337.211 219.459C327.517 249.897 309.461 276.991 285.106 297.644C261.325 317.926 232.387 331.208 201.512 336.012C170.637 340.817 139.035 336.955 110.223 324.856C110.145 324.824 110.076 324.773 110.022 324.709V324.709Z" fill="#E6E6E6"/>
<path d="M97.5721 334.277C97.5262 334.223 97.4913 334.161 97.4695 334.094C97.4477 334.026 97.4394 333.955 97.4451 333.885C97.4507 333.814 97.4702 333.745 97.5024 333.682C97.5346 333.619 97.579 333.563 97.6329 333.517L352.112 116.588C352.221 116.495 352.362 116.449 352.504 116.461C352.647 116.472 352.779 116.54 352.871 116.648C352.964 116.757 353.01 116.898 352.998 117.041C352.987 117.183 352.919 117.316 352.81 117.408L98.3315 334.338C98.2777 334.384 98.2153 334.419 98.148 334.441C98.0807 334.463 98.0097 334.471 97.9392 334.465C97.8687 334.46 97.8 334.44 97.737 334.408C97.674 334.376 97.618 334.331 97.5721 334.277Z" fill="#E6E6E6"/>
<path d="M0.12867 219.81C0.0827798 219.756 0.0479539 219.693 0.0261704 219.626C0.00438685 219.559 -0.00392693 219.488 0.00171441 219.417C0.00735575 219.346 0.0268382 219.278 0.059045 219.215C0.0912519 219.152 0.135555 219.096 0.189421 219.05L254.668 2.11969C254.777 2.02715 254.918 1.98161 255.061 1.99307C255.203 2.00454 255.335 2.07207 255.427 2.18083C255.52 2.28959 255.566 2.43068 255.554 2.57311C255.543 2.71553 255.476 2.84763 255.367 2.94038L0.88806 219.87C0.834218 219.916 0.771861 219.951 0.704552 219.973C0.637243 219.995 0.566302 220.003 0.495781 219.997C0.42526 219.992 0.356547 219.972 0.293557 219.94C0.230567 219.908 0.174533 219.863 0.12867 219.81V219.81Z" fill="#E6E6E6"/>
<path d="M97.5721 334.277C97.5262 334.223 97.4913 334.161 97.4695 334.094C97.4477 334.026 97.4394 333.955 97.4451 333.885C97.4507 333.814 97.4702 333.745 97.5024 333.682C97.5346 333.619 97.579 333.563 97.6329 333.517L352.112 116.588C352.221 116.495 352.362 116.449 352.504 116.461C352.647 116.472 352.779 116.54 352.871 116.648C352.964 116.757 353.01 116.898 352.998 117.041C352.987 117.183 352.919 117.316 352.81 117.408L98.3315 334.338C98.2777 334.384 98.2153 334.419 98.148 334.441C98.0807 334.463 98.0097 334.471 97.9392 334.465C97.8687 334.46 97.8 334.44 97.737 334.408C97.674 334.376 97.618 334.331 97.5721 334.277Z" fill="#E6E6E6"/>
<path d="M297.524 89.411H199.033V88.895C199.033 88.4931 198.873 88.1076 198.589 87.8235C198.305 87.5393 197.92 87.3796 197.519 87.3796H155.887C155.486 87.3796 155.101 87.5393 154.817 87.8235C154.533 88.1076 154.373 88.4931 154.373 88.895V89.411H55.4757C53.7088 89.411 52.0142 90.1134 50.7648 91.3637C49.5154 92.6139 48.8135 94.3097 48.8135 96.0778V231.036C48.8135 232.804 49.5154 234.5 50.7648 235.75C52.0142 237 53.7088 237.702 55.4757 237.702H297.524C299.291 237.702 300.986 237 302.235 235.75C303.484 234.499 304.186 232.804 304.186 231.036V96.0778C304.186 94.3097 303.484 92.6139 302.235 91.3637C300.986 90.1134 299.291 89.411 297.524 89.411V89.411Z" fill="#3F3D56"/>
<path d="M60.774 103.6C60.6087 103.6 60.4502 103.666 60.3334 103.783C60.2165 103.9 60.1508 104.058 60.1506 104.224V232.234C60.1508 232.4 60.2165 232.558 60.3334 232.675C60.4503 232.792 60.6087 232.858 60.774 232.858H292.226C292.391 232.858 292.55 232.792 292.666 232.675C292.783 232.558 292.849 232.4 292.849 232.234V104.224C292.849 104.058 292.783 103.9 292.666 103.783C292.55 103.666 292.391 103.6 292.226 103.6H60.774Z" fill="#E3793F"/>
<path d="M176.297 97.5365C177.642 97.5365 178.733 96.4451 178.733 95.0988C178.733 93.7525 177.642 92.6611 176.297 92.6611C174.951 92.6611 173.861 93.7525 173.861 95.0988C173.861 96.4451 174.951 97.5365 176.297 97.5365Z" fill="#E3793F"/>
<path d="M308.622 228.607H285.443V226.211C285.443 226.08 285.295 225.973 285.112 225.973H277.165C276.982 225.973 276.833 226.08 276.833 226.211V228.607H271.866V226.211C271.866 226.08 271.718 225.973 271.535 225.973H263.588C263.405 225.973 263.257 226.08 263.257 226.211V228.607H258.29V226.211C258.29 226.08 258.142 225.973 257.959 225.973H250.012C249.829 225.973 249.68 226.08 249.68 226.211V228.607H244.713V226.211C244.713 226.08 244.565 225.973 244.382 225.973H236.435C236.252 225.973 236.104 226.08 236.104 226.211V228.607H231.137V226.211C231.137 226.08 230.989 225.973 230.806 225.973H222.859C222.676 225.973 222.528 226.08 222.528 226.211V228.607H217.561V226.211C217.561 226.08 217.412 225.973 217.229 225.973H209.282C209.099 225.973 208.951 226.08 208.951 226.211V228.607H203.984V226.211C203.984 226.08 203.836 225.973 203.653 225.973H141.4C141.217 225.973 141.069 226.08 141.069 226.211V228.607H136.102V226.211C136.102 226.08 135.954 225.973 135.771 225.973H127.823C127.641 225.973 127.492 226.08 127.492 226.211V228.607H122.525V226.211C122.525 226.08 122.377 225.973 122.194 225.973H114.247C114.064 225.973 113.916 226.08 113.916 226.211V228.607H108.949V226.211C108.949 226.08 108.801 225.973 108.618 225.973H100.671C100.488 225.973 100.339 226.08 100.339 226.211V228.607H95.3724V226.211C95.3724 226.08 95.2241 225.973 95.0412 225.973H87.0941C86.9112 225.973 86.7629 226.08 86.7629 226.211V228.607H81.7959V226.211C81.7959 226.08 81.6477 225.973 81.4648 225.973H73.5176C73.3347 225.973 73.1865 226.08 73.1865 226.211V228.607H68.2194V226.211C68.2194 226.08 68.0712 225.973 67.8883 225.973H59.9411C59.7582 225.973 59.61 226.08 59.61 226.211V228.607H44.3779C39.9887 228.607 36.4307 231.166 36.4307 234.323V236.909C36.4307 240.066 39.9887 242.625 44.3779 242.625H308.622C313.011 242.625 316.569 240.066 316.569 236.909V234.324C316.569 231.166 313.011 228.607 308.622 228.607Z" fill="#3F3D56"/>
<path d="M149.552 157.456H81.1405C80.9976 157.456 80.8606 157.399 80.7596 157.298C80.6586 157.197 80.6018 157.06 80.6018 156.917C80.6018 156.774 80.6586 156.637 80.7596 156.536C80.8606 156.434 80.9976 156.378 81.1405 156.378H149.552C149.695 156.378 149.832 156.434 149.933 156.536C150.034 156.637 150.091 156.774 150.091 156.917C150.091 157.06 150.034 157.197 149.933 157.298C149.832 157.399 149.695 157.456 149.552 157.456Z" fill="#F2F2F2"/>
<path d="M149.552 169.315H81.1405C80.9976 169.315 80.8606 169.258 80.7596 169.157C80.6586 169.056 80.6018 168.919 80.6018 168.776C80.6018 168.633 80.6586 168.496 80.7596 168.395C80.8606 168.294 80.9976 168.237 81.1405 168.237H149.552C149.695 168.237 149.832 168.294 149.933 168.395C150.034 168.496 150.091 168.633 150.091 168.776C150.091 168.919 150.034 169.056 149.933 169.157C149.832 169.258 149.695 169.315 149.552 169.315Z" fill="#F2F2F2"/>
<path d="M149.553 181.174H81.1406C81.0698 181.174 80.9995 181.16 80.934 181.133C80.8684 181.106 80.8089 181.067 80.7587 181.017C80.7085 180.967 80.6687 180.907 80.6415 180.842C80.6143 180.776 80.6003 180.706 80.6003 180.635C80.6003 180.564 80.6143 180.494 80.6415 180.428C80.6687 180.363 80.7085 180.303 80.7587 180.253C80.8089 180.203 80.8684 180.163 80.934 180.136C80.9995 180.109 81.0698 180.096 81.1406 180.096H149.553C149.623 180.096 149.694 180.109 149.759 180.136C149.825 180.163 149.884 180.203 149.935 180.253C149.985 180.303 150.025 180.363 150.052 180.428C150.079 180.494 150.093 180.564 150.093 180.635C150.093 180.706 150.079 180.776 150.052 180.842C150.025 180.907 149.985 180.967 149.935 181.017C149.884 181.067 149.825 181.106 149.759 181.133C149.694 181.16 149.623 181.174 149.553 181.174Z" fill="#F2F2F2"/>
<path d="M265.637 126.461H181.065C180.172 126.461 179.449 127.185 179.449 128.078V209.474C179.449 210.367 180.172 211.091 181.065 211.091H265.637C266.53 211.091 267.253 210.367 267.253 209.474V128.078C267.253 127.185 266.53 126.461 265.637 126.461Z" fill="white"/>
<path d="M197.031 171.25C197.321 166.124 199.421 161.267 202.956 157.547C206.491 153.826 211.231 151.482 216.332 150.933C221.434 150.385 226.564 151.667 230.808 154.551C235.052 157.436 238.135 161.735 239.506 166.682C239.769 166.673 240.031 166.662 240.295 166.662C241.198 166.671 242.093 166.823 242.948 167.114C253.716 170.652 250.881 186.741 239.547 186.741H211.691C209.721 186.746 207.77 186.354 205.955 185.587C204.14 184.821 202.499 183.696 201.129 182.279C199.758 180.863 198.688 179.184 197.981 177.344C197.275 175.503 196.946 173.539 197.016 171.569C197.02 171.463 197.025 171.356 197.031 171.25Z" fill="#E3793F"/>
<path d="M222.421 170.912V162.045H217.65V170.912H213.84L216.938 176.281L220.035 181.65L223.133 176.281L226.23 170.912H222.421Z" fill="white"/>
</g>
<defs>
<clipPath id="clip0">
<rect width="353" height="338" fill="white"/>
</clipPath>
</defs>
</svg>
