<svg width="423" height="247" viewBox="0 0 423 247" fill="none" xmlns="http://www.w3.org/2000/svg">
<g clip-path="url(#clip0_324_460)">
<path d="M136.613 240.819C202.972 240.819 256.766 186.91 256.766 120.409C256.766 53.9091 202.972 0 136.613 0C70.2544 0 16.46 53.9091 16.46 120.409C16.46 186.91 70.2544 240.819 136.613 240.819Z" fill="#F2F2F2"/>
<path d="M423 213.599C422.999 213.892 422.976 214.184 422.93 214.473C419.992 232.518 326.455 247 211.5 247C96.5452 247 3.00791 232.518 0.0699506 214.473C0.0240231 214.184 0.000635978 213.892 0 213.599C0 213.517 -1.38112e-06 213.43 0.00822819 213.348C0.00822819 213.302 0.0123439 213.261 0.0123439 213.216C0.0157426 213.199 0.0171256 213.183 0.0164595 213.166C0.0329187 212.981 0.0576075 212.803 0.0905258 212.622C1.43195 205.245 17.9281 198.466 44.8347 193.035C66.8406 188.594 95.8128 185.052 129.159 182.825C154.465 181.134 182.289 180.198 211.5 180.198C235.004 180.198 257.61 180.805 278.727 181.918H278.736C283.155 182.153 287.508 182.41 291.796 182.689C321.147 184.594 347.193 187.509 368.179 191.159C381.087 193.406 392.086 195.934 400.764 198.672H400.768C414.124 202.89 422 207.62 422.909 212.622C422.942 212.803 422.967 212.981 422.984 213.166C422.983 213.183 422.984 213.199 422.988 213.216C422.988 213.261 422.992 213.302 422.992 213.348C423 213.43 423 213.517 423 213.599Z" fill="#3F3D56"/>
<path opacity="0.1" d="M206.151 245.763C243.648 245.763 274.045 241.332 274.045 235.866C274.045 230.401 243.648 225.97 206.151 225.97C168.654 225.97 138.257 230.401 138.257 235.866C138.257 241.332 168.654 245.763 206.151 245.763Z" fill="black"/>
<path opacity="0.1" d="M400.764 198.672C398.389 199.352 395.715 199.983 392.781 200.56C380.7 202.944 364.216 204.408 346.066 204.408C325.788 204.408 307.613 202.581 295.298 199.69C285.077 197.291 278.888 194.169 278.888 190.742C278.888 187.732 283.678 184.945 291.796 182.689C321.147 184.594 347.193 187.51 368.179 191.159C381.087 193.406 392.086 195.934 400.764 198.672Z" fill="black"/>
<path opacity="0.1" d="M218.906 194.115C218.906 200.354 179.849 205.414 131.673 205.414C83.497 205.414 44.4395 200.354 44.4395 194.115C44.4498 193.722 44.5886 193.342 44.8345 193.035C66.8404 188.594 95.8126 185.052 129.159 182.825C129.994 182.821 130.832 182.82 131.673 182.821C179.849 182.821 218.906 187.876 218.906 194.115Z" fill="black"/>
<path d="M188.522 138.129H171.369V193.625H188.522V138.129Z" fill="#E3793F"/>
<path d="M132.163 112.099H115.011V193.625H132.163V112.099Z" fill="#E3793F"/>
<path d="M76.2947 112.099H59.1421V193.625H76.2947V112.099Z" fill="#E3793F"/>
<path d="M104.229 112.099H87.0762V167.596H104.229V112.099Z" fill="#E3793F"/>
<path d="M160.097 112.099H142.945V128.306H160.097V112.099Z" fill="#E3793F"/>
<path d="M160.097 138.129H142.945V193.625H160.097V138.129Z" fill="#8A8B8C"/>
<path d="M216.456 112.099H171.369V128.306H216.456V112.099Z" fill="#E3793F"/>
<path d="M335.381 107.224C347.107 107.224 357.089 111.326 365.325 119.529C369.205 123.386 372.261 127.993 374.309 133.07C378.39 143.457 378.404 155.006 374.348 165.402C372.331 170.421 369.284 174.958 365.403 178.719C361.413 182.702 356.682 185.863 351.478 188.022C346.379 190.154 340.908 191.251 335.383 191.248C329.921 191.264 324.511 190.18 319.475 188.059C309.216 183.683 301.047 175.496 296.679 165.216C292.474 154.964 292.487 143.462 296.716 133.22C298.858 128.062 302 123.383 305.961 119.453C313.946 111.302 323.753 107.226 335.381 107.224ZM335.533 114.802C325.951 114.802 317.89 118.153 311.351 124.855C308.127 128.102 305.548 131.934 303.752 136.146C301.998 140.273 301.094 144.713 301.094 149.199C301.094 153.686 301.998 158.125 303.752 162.253C307.368 170.669 314.087 177.362 322.506 180.936C326.644 182.651 331.079 183.53 335.556 183.524C340.033 183.518 344.465 182.626 348.598 180.9C352.849 179.125 356.724 176.553 360.013 173.323C366.55 166.921 369.819 158.894 369.818 149.239C369.842 144.713 368.977 140.227 367.272 136.036C365.57 131.875 363.051 128.099 359.865 124.931C353.123 118.179 345.012 114.803 335.533 114.802ZM335.007 142.261L329.391 145.188C328.938 144.109 328.168 143.193 327.183 142.562C326.451 142.105 325.612 141.846 324.749 141.812C321.008 141.812 319.136 144.288 319.134 149.239C319.134 151.49 319.608 153.29 320.556 154.639C321.504 155.99 322.902 156.666 324.749 156.666C327.195 156.666 328.918 155.466 329.916 153.065L335.081 155.691C334.026 157.697 332.442 159.373 330.501 160.538C328.561 161.702 326.338 162.309 324.076 162.293C320.333 162.293 317.313 161.143 315.017 158.842C312.721 156.542 311.574 153.341 311.574 149.241C311.574 145.239 312.734 142.063 315.055 139.713C317.375 137.363 320.307 136.188 323.852 136.187C329.044 136.184 332.762 138.209 335.007 142.261ZM359.188 142.261L353.647 145.188C353.194 144.108 352.424 143.192 351.438 142.562C350.682 142.098 349.818 141.839 348.931 141.812C345.188 141.812 343.316 144.288 343.315 149.239C343.315 151.49 343.789 153.29 344.737 154.639C345.685 155.99 347.082 156.666 348.931 156.666C351.374 156.666 353.095 155.466 354.094 153.065L359.334 155.691C358.241 157.686 356.641 159.356 354.695 160.53C352.779 161.698 350.575 162.308 348.332 162.293C344.538 162.293 341.507 161.143 339.239 158.842C336.965 156.542 335.828 153.341 335.83 149.241C335.83 145.239 336.991 142.063 339.312 139.713C341.631 137.363 344.563 136.188 348.107 136.187C353.298 136.184 356.991 138.209 359.188 142.261Z" fill="#E3793F"/>
<path opacity="0.1" d="M310.015 210.44C310.015 230.537 282.061 224.321 247.835 224.321C213.609 224.321 186.071 230.537 186.071 210.44C186.071 190.343 214.02 185.972 248.247 185.972C282.473 185.972 310.015 190.343 310.015 210.44Z" fill="black"/>
<path d="M310.015 205.491C310.015 225.589 282.061 219.372 247.835 219.372C213.609 219.372 186.071 225.589 186.071 205.491C186.071 185.394 214.02 181.023 248.247 181.023C282.473 181.023 310.015 185.394 310.015 205.491Z" fill="#3F3D56"/>
<path d="M304.306 169.413L305.718 175.253C305.734 175.319 305.732 175.387 305.711 175.451L299.302 195.521C299.277 195.601 299.225 195.669 299.156 195.715C299.086 195.761 299.003 195.781 298.92 195.773C298.837 195.765 298.76 195.729 298.7 195.67C298.641 195.611 298.603 195.534 298.594 195.451L297.707 187.633C297.702 187.581 297.707 187.528 297.723 187.478L303.606 169.386C303.63 169.31 303.679 169.245 303.744 169.2C303.809 169.154 303.887 169.131 303.966 169.134C304.045 169.137 304.121 169.166 304.182 169.217C304.244 169.267 304.287 169.336 304.306 169.413Z" fill="#2F2E41"/>
<path d="M303.786 169.906L305.09 174.917L299.437 193.218L298.133 187.554L303.786 169.906Z" fill="#F2F2F2"/>
<path d="M275.305 197.14C275.523 197.794 297.916 196.922 298.133 196.704C298.323 196.431 298.483 196.139 298.611 195.833C298.816 195.397 299.003 194.961 299.003 194.961L298.133 187.907L275.958 187.118C275.958 187.118 275.403 193.096 275.29 195.833C275.252 196.268 275.257 196.706 275.305 197.14Z" fill="#2F2E41"/>
<path opacity="0.1" d="M295.307 188.861L295.742 194.961H285.958V188.861H295.307Z" fill="black"/>
<path opacity="0.1" d="M282.697 190.822L282.756 190.81L282.48 193.436H277.045V190.822H282.697Z" fill="black"/>
<path opacity="0.1" d="M275.305 197.14C275.523 197.794 297.916 196.922 298.133 196.704C298.323 196.431 298.483 196.139 298.611 195.833H275.29C275.252 196.268 275.257 196.706 275.305 197.14Z" fill="black"/>
<path d="M240.738 174.264H246.825L261.826 168.381C261.826 168.381 272.479 164.024 271.61 172.303C270.74 180.582 269.218 191.693 269.218 191.693C269.218 191.693 264.435 189.515 261.826 190.168C259.217 190.822 260.957 176.878 260.957 176.878C260.957 176.878 239.651 187.118 237.694 185.811C235.738 184.504 235.303 175.353 235.303 175.353L240.738 174.264Z" fill="#2F2E41"/>
<path opacity="0.1" d="M240.738 174.264H246.825L261.826 168.381C261.826 168.381 272.479 164.024 271.61 172.303C270.74 180.582 269.218 191.693 269.218 191.693C269.218 191.693 264.435 189.515 261.826 190.168C259.217 190.822 260.957 176.878 260.957 176.878C260.957 176.878 239.651 187.118 237.694 185.811C235.738 184.504 235.303 175.353 235.303 175.353L240.738 174.264Z" fill="black"/>
<path d="M250.329 155.159L257.696 165.767L274.871 180.146C274.871 180.146 290.741 183.85 288.567 186.464C286.393 189.079 273.132 183.85 273.132 183.85C273.132 183.85 253.347 169.47 252.695 168.381C252.043 167.292 244.869 157.052 244.869 157.052L250.329 155.159Z" fill="#A0616A"/>
<path opacity="0.1" d="M250.329 155.159L257.696 165.767L274.871 180.146C274.871 180.146 290.741 183.85 288.567 186.464C286.393 189.079 273.132 183.85 273.132 183.85C273.132 183.85 253.347 169.47 252.695 168.381C252.043 167.292 244.869 157.052 244.869 157.052L250.329 155.159Z" fill="black"/>
<path d="M249.216 143.544C254.62 143.544 259 139.154 259 133.74C259 128.325 254.62 123.936 249.216 123.936C243.813 123.936 239.433 128.325 239.433 133.74C239.433 139.154 243.813 143.544 249.216 143.544Z" fill="#A0616A"/>
<path d="M248.564 142.455C248.564 142.455 245.303 148.119 244.651 151.169C243.999 154.22 234.868 145.069 234.868 145.069L233.672 141.91C233.672 141.91 242.259 137.879 241.607 134.611C240.955 131.343 248.564 142.455 248.564 142.455Z" fill="#A0616A"/>
<path d="M245.956 146.594L250.739 155.963C250.739 155.963 249.652 160.538 247.912 160.974C246.173 161.409 238.781 155.309 238.781 155.309L245.956 146.594Z" fill="#D0CDE1"/>
<path d="M250.304 159.448L259.217 171.213L280.523 187.118C280.523 187.118 295.959 190.386 292.481 192.783C289.002 195.179 279.001 190.604 279.001 190.604C279.001 190.604 257.478 179.057 252.913 174.264C248.347 169.471 239.868 161.409 239.868 161.409L250.304 159.448Z" fill="#A0616A"/>
<path d="M238.346 177.75L240.955 181.889L256.525 176.98C258.212 176.434 259.997 176.261 261.757 176.474C263.517 176.687 265.209 177.28 266.718 178.213C269.436 179.928 271.175 182.652 267.262 186.682C259.435 194.743 254.217 190.386 254.217 190.386C254.217 190.386 227.911 202.805 223.563 196.704C219.214 190.604 218.997 187.554 218.997 187.554C218.997 187.554 235.737 177.096 238.346 177.75Z" fill="#2F2E41"/>
<path d="M270.957 192.129C270.957 192.129 277.914 196.704 269.653 198.883C261.391 201.062 255.304 198.012 255.304 198.012C255.304 198.012 248.129 198.012 248.129 194.308C248.129 190.604 250.521 190.168 250.521 190.168L257.913 191.258C257.913 191.258 266.826 188.861 270.957 192.129Z" fill="#D0CDE1"/>
<path d="M257.242 131.274C257.885 131.62 258.576 131.868 259.292 132.009C259.652 132.074 260.023 132.031 260.359 131.887C260.695 131.743 260.982 131.503 261.183 131.198C261.343 130.835 261.417 130.441 261.398 130.045C261.424 128.849 261.338 127.555 260.581 126.629C260.1 126.04 259.397 125.669 258.899 125.094C258.564 124.663 258.279 124.196 258.048 123.701C257.079 121.877 255.644 120.123 253.649 119.597C252.806 119.416 251.943 119.35 251.082 119.401L246.059 119.472C245.246 119.445 244.432 119.533 243.643 119.732C242.026 120.222 240.849 121.585 239.771 122.887C238.934 123.837 238.191 124.866 237.551 125.959C236.683 127.581 236.244 129.398 236.276 131.238C236.269 131.71 236.33 132.181 236.457 132.636C236.605 133.053 236.788 133.456 237.005 133.842C237.946 135.696 238.506 138.011 237.445 139.8C239.288 139.046 241.111 138.057 242.326 136.477C242.87 135.77 243.297 134.943 244.021 134.425C244.746 133.906 245.927 133.861 246.392 134.622C246.551 134.93 246.634 135.272 246.631 135.619C246.617 136.193 246.71 136.764 246.906 137.302C247.011 137.569 247.204 137.792 247.453 137.934C247.701 138.076 247.991 138.129 248.273 138.084C249.22 137.817 249.129 136.361 249.858 135.7C250.412 135.197 251.266 135.293 251.977 135.065C252.385 134.91 252.756 134.671 253.067 134.365C253.377 134.058 253.621 133.69 253.782 133.284C254.052 132.678 254.048 131.094 254.557 130.766C255.196 130.355 256.65 131.009 257.242 131.274Z" fill="#2F2E41"/>
<path d="M232.896 140.876C233.336 140.759 233.799 140.76 234.239 140.88C235.634 141.255 238.763 142.249 239.434 143.762C240.303 145.723 243.347 148.773 243.347 148.773C243.347 148.773 247.478 152.912 246.608 155.745C245.738 158.577 242.477 161.845 242.477 161.845C242.477 161.845 243.347 175.353 238.999 178.839C234.651 182.325 232.911 179.928 232.911 183.196C232.911 186.464 219.432 196.704 216.823 190.386C216.823 190.386 218.128 178.621 217.693 174.482C217.264 170.402 217.892 144.947 232.896 140.876Z" fill="#D0CDE1"/>
<path d="M239.868 146.376C239.868 146.376 253.13 156.18 250.739 160.32C250.739 160.32 242.695 164.242 240.955 164.024C239.216 163.806 232.476 156.18 230.737 155.527C228.998 154.873 228.128 143.108 239.868 146.376Z" fill="#D0CDE1"/>
<path d="M203.192 155.162C201.13 155.86 199.261 157.493 198.839 159.633C198.643 160.625 198.763 161.656 198.598 162.654C198.216 164.968 196.404 166.735 194.732 168.377C193.06 170.018 191.334 171.925 191.212 174.268C191.078 176.833 192.934 179.235 192.613 181.783C192.24 184.744 189.12 186.662 188.349 189.544C187.834 191.468 188.465 193.541 189.503 195.241C191.482 198.479 194.864 200.677 198.465 201.855C202.067 203.034 205.903 203.282 209.691 203.321C214.304 203.37 219.313 202.973 222.779 199.922C224.759 198.164 226.002 195.72 226.26 193.082C226.589 189.547 225.117 185.896 226.132 182.495C226.771 180.355 228.374 178.401 228.134 176.18C227.901 174.008 226.008 172.469 224.71 170.714C223.497 169.076 222.762 167.142 222.041 165.235L219.574 158.71C219.089 157.427 218.557 156.078 217.476 155.236C215.453 153.66 212.2 153.97 209.834 154.295C207.64 154.597 205.303 154.448 203.192 155.162Z" fill="#2F2E41"/>
<path d="M203.965 174.169C203.965 174.169 205.059 177.731 196.857 181.84C188.656 185.949 197.678 190.333 197.678 190.333L207.246 192.524C207.246 192.524 217.087 191.155 218.181 189.511C219.274 187.867 221.188 182.388 220.641 181.566C220.232 180.981 219.775 180.431 219.274 179.922C219.274 179.922 212.713 178.826 212.987 175.813C213.26 172.799 203.965 174.169 203.965 174.169Z" fill="#FFB9B9"/>
<path opacity="0.1" d="M203.965 174.169C203.965 174.169 205.059 177.731 196.857 181.84C188.656 185.949 197.678 190.333 197.678 190.333L207.246 192.524C207.246 192.524 217.087 191.155 218.181 189.511C219.274 187.867 221.188 182.388 220.641 181.566C220.232 180.981 219.775 180.431 219.274 179.922C219.274 179.922 212.713 178.826 212.987 175.813C213.26 172.799 203.965 174.169 203.965 174.169Z" fill="black"/>
<path d="M209.296 179.785C214.127 179.785 218.044 175.86 218.044 171.019C218.044 166.177 214.127 162.252 209.296 162.252C204.464 162.252 200.548 166.177 200.548 171.019C200.548 175.86 204.464 179.785 209.296 179.785Z" fill="#FFB9B9"/>
<path d="M208.339 189.511C208.339 189.511 197.804 188.739 197.604 181.454C197.604 181.454 193.85 181.018 192.757 182.114C191.663 183.21 188.109 184.032 188.109 186.771C188.109 189.511 194.124 197.729 194.124 197.729C194.124 197.729 197.404 208.688 196.037 210.605C194.67 212.523 194.397 217.454 194.397 217.454C194.397 217.454 208.066 216.359 210.253 217.454C212.44 218.55 221.188 218.55 221.734 217.454C222.281 216.359 221.188 202.661 221.188 202.661C221.188 202.661 223.648 199.373 223.101 195.538L229.662 187.867C229.662 187.867 227.202 180.47 223.375 180.47C223.375 180.47 218.181 179.1 218.044 179.785C217.907 180.47 220.641 188.141 208.339 189.511Z" fill="#FF6584"/>
<path d="M183.735 213.619C183.735 213.619 186.196 217.454 192.483 218.276C198.771 219.098 199.864 216.906 199.318 216.359C198.771 215.811 192.21 213.345 192.21 213.345L188.383 210.332L183.735 213.619Z" fill="#FFB9B9"/>
<path d="M228.569 210.332L221.461 214.441C221.461 214.441 212.166 213.893 215.72 216.633C219.274 219.372 225.835 218.276 225.835 218.276L232.122 215.263L228.569 210.332Z" fill="#FFB9B9"/>
<path d="M193.03 217.454C193.03 217.454 186.469 233.618 194.397 236.083C202.325 238.549 224.195 238.001 229.115 234.714C234.036 231.426 235.403 227.043 234.583 225.673C233.763 224.303 228.295 220.468 224.468 220.194C220.641 219.92 193.03 217.454 193.03 217.454Z" fill="#2F2E41"/>
<path opacity="0.05" d="M193.03 217.454C193.03 217.454 186.469 233.618 194.397 236.083C202.325 238.549 224.195 238.001 229.115 234.714C234.036 231.426 235.403 227.043 234.583 225.673C233.763 224.303 228.295 220.468 224.468 220.194C220.641 219.92 193.03 217.454 193.03 217.454Z" fill="black"/>
<path d="M224 218.459C224 218.459 247.158 210.058 246.885 220.194C246.611 230.33 232.123 233.07 232.123 233.07L227.749 233.618L203.692 234.44C203.692 234.44 204.512 230.056 202.598 229.509C202.598 229.509 208.886 227.865 209.159 227.591C209.432 227.317 225.015 221.838 226.108 221.564C227.202 221.29 230.482 219.098 232.943 219.372C232.943 219.372 235.676 217.18 238.683 217.728L230.209 218.276L224 218.459Z" fill="#2F2E41"/>
<path opacity="0.1" d="M224 218.459C224 218.459 247.158 210.058 246.885 220.194C246.611 230.33 232.123 233.07 232.123 233.07L227.749 233.618L203.692 234.44C203.692 234.44 204.512 230.056 202.598 229.509C202.598 229.509 208.886 227.865 209.159 227.591C209.432 227.317 225.015 221.838 226.108 221.564C227.202 221.29 230.482 219.098 232.943 219.372C232.943 219.372 235.676 217.18 238.683 217.728L230.209 218.276L224 218.459Z" fill="black"/>
<path d="M219.908 219.819L222.828 226.495L240.597 220.194L241.964 216.633L237.317 215.81L227.974 217.454L223.921 218.55L219.908 219.819Z" fill="#2F2E41"/>
<path opacity="0.1" d="M219.908 219.819L222.828 226.495L240.597 220.194L241.964 216.633L237.317 215.81L227.974 217.454L223.921 218.55L219.908 219.819Z" fill="black"/>
<path d="M182.095 227.865C182.095 227.865 187.289 234.44 193.303 236.083C199.318 237.727 202.598 235.536 202.598 235.536L200.685 227.865L199.864 222.933L196.311 220.468L189.203 217.18L180.728 214.441C180.728 214.441 177.174 213.893 177.174 214.441C177.174 214.989 180.455 223.207 180.455 223.207L182.095 227.865Z" fill="#2F2E41"/>
<path d="M188.383 231.426C188.383 231.426 189.476 239.371 190.843 239.919C192.21 240.467 196.311 239.371 197.404 238.823C198.498 238.275 202.215 235.747 202.215 235.747C202.215 235.747 189.203 230.878 188.383 231.426Z" fill="#F2F2F2"/>
<path d="M213.26 232.248L218.454 233.07L217.907 239.371L210.662 237.608L213.26 232.248Z" fill="#FFB9B9"/>
<path d="M216.514 234.002C216.514 234.002 214.08 236.905 216.54 238.549L218.18 239.919C218.18 239.919 223.648 241.015 224.195 241.563C224.741 242.11 226.928 240.741 226.928 240.741C226.928 240.741 227.202 232.522 226.928 231.974C226.655 231.426 223.375 230.878 223.101 231.426C222.828 231.974 219.547 232.796 217.634 232.248L216.514 234.002Z" fill="#F2F2F2"/>
<path d="M194.67 219.372C194.67 219.372 175.534 208.14 172.527 212.249C169.52 216.359 166.239 222.112 174.987 226.495C183.735 230.878 211.073 239.919 211.073 239.919C211.073 239.919 215.173 233.618 215.173 231.974C215.173 231.974 200.685 225.399 198.224 224.851C195.764 224.303 185.922 218.002 184.555 217.454C183.189 216.907 181.275 215.263 181.275 215.263L194.67 219.372Z" fill="#2F2E41"/>
<path d="M189.203 185.401L188.109 186.223C188.109 186.223 185.649 192.524 185.376 196.086C185.102 199.647 181.822 210.605 182.095 211.975C182.369 213.345 182.642 214.441 184.282 215.811C184.282 215.811 186.469 210.879 190.297 211.701L194.944 194.716L189.203 185.401Z" fill="#FF6584"/>
<path d="M227.475 185.401L229.662 187.867C229.662 187.867 231.029 191.154 231.029 191.976C231.029 192.798 233.763 204.852 234.036 205.4C234.31 205.948 235.403 212.797 234.036 214.441C232.669 216.085 230.209 217.18 230.209 217.18C230.209 217.18 231.849 211.427 226.655 211.153L227.202 208.962L222.281 192.524L227.475 185.401Z" fill="#FF6584"/>
<path d="M189.75 204.263V218.693C189.75 219.605 190.107 220.479 190.745 221.128C191.384 221.777 192.251 222.149 193.16 222.162L223.274 222.609C224.178 222.623 225.051 222.281 225.707 221.658C226.364 221.035 226.75 220.179 226.785 219.274L227.339 204.842C227.357 204.38 227.282 203.918 227.119 203.486C226.956 203.053 226.709 202.657 226.391 202.321C226.074 201.985 225.692 201.717 225.27 201.531C224.847 201.345 224.391 201.246 223.93 201.239L193.262 200.794C192.803 200.787 192.347 200.872 191.921 201.044C191.496 201.215 191.108 201.469 190.781 201.792C190.454 202.115 190.195 202.5 190.018 202.924C189.841 203.348 189.75 203.803 189.75 204.263Z" fill="#3F3D56"/>
<path d="M209.809 170.738C215.009 170.738 219.225 168.463 219.225 165.656C219.225 162.85 215.009 160.575 209.809 160.575C204.608 160.575 200.393 162.85 200.393 165.656C200.393 168.463 204.608 170.738 209.809 170.738Z" fill="#2F2E41"/>
<path d="M208.202 214.03C209.41 214.03 210.389 213.049 210.389 211.838C210.389 210.628 209.41 209.647 208.202 209.647C206.994 209.647 206.015 210.628 206.015 211.838C206.015 213.049 206.994 214.03 208.202 214.03Z" fill="#F2F2F2"/>
</g>
<defs>
<clipPath id="clip0_324_460">
<rect width="423" height="247" fill="white"/>
</clipPath>
</defs>
</svg>
