<svg width="40" height="24" viewBox="0 0 40 24" fill="none" xmlns="http://www.w3.org/2000/svg">
<path d="M24.125 10.3125H12.75V14.4375H19.5625C19.3125 16.1875 17.5 19.625 12.75 19.625C8.6875 19.625 5.3125 16.25 5.3125 12C5.3125 7.8125 8.6875 4.4375 12.75 4.4375C15.125 4.4375 16.6875 5.4375 17.5625 6.3125L20.8125 3.1875C18.6875 1.1875 16 0 12.75 0C6.125 0 0.75 5.375 0.75 12C0.75 18.6875 6.125 24 12.75 24C19.6875 24 24.3125 19.1875 24.3125 12.3125C24.3125 11.5 24.1875 10.9375 24.125 10.3125ZM35.6875 10.6875V7.25H32.1875V10.6875H28.6875V14.1875H32.1875V17.6875H35.6875V14.1875H39.1875V10.6875H35.6875Z" fill="#46B19D"/>
</svg>
