<svg width="409" height="285" viewBox="0 0 409 285" fill="none" xmlns="http://www.w3.org/2000/svg">
<path d="M81.4905 285C126.497 285 162.981 282.225 162.981 278.801C162.981 275.378 126.497 272.603 81.4905 272.603C36.4846 272.603 0 275.378 0 278.801C0 282.225 36.4846 285 81.4905 285Z" fill="#E6E6E6"/>
<path d="M62.2898 63.2365C76.4716 57.1952 94.1353 61.0229 111.386 63.6795C111.546 60.4624 113.492 56.547 111.454 54.3025C108.978 51.5757 109.206 48.7107 110.696 45.8291C114.506 38.4604 109.047 30.6197 103.535 24.1003C102.292 22.6342 100.722 21.4822 98.9517 20.738C97.1813 19.9938 95.2605 19.6783 93.3455 19.8172L83.1347 20.5476C80.65 20.7254 78.2788 21.6589 76.3383 23.2232C74.3978 24.7876 72.9806 26.9082 72.2764 29.3012C69.8382 32.6223 68.5333 35.9341 69.3549 39.2287C65.703 41.7282 65.0894 44.7454 66.7304 48.1467C68.122 50.2883 68.1071 52.373 66.6671 54.3999C64.7759 56.9841 63.3275 59.8656 62.3811 62.9262L62.2898 63.2365Z" fill="#2F2E41"/>
<path d="M399.308 246.378H110.265C107.695 246.378 105.23 245.355 103.412 243.535C101.595 241.715 100.574 239.246 100.574 236.671C205.352 224.475 308.16 224.475 409 236.671C409 239.246 407.979 241.715 406.161 243.535C404.344 245.355 401.879 246.378 399.308 246.378Z" fill="#2F2E41"/>
<path d="M409 237.242L100.574 236.671L136.319 176.433L136.49 176.147V43.3888C136.49 41.7774 136.807 40.1817 137.423 38.693C138.038 37.2042 138.941 35.8515 140.078 34.712C141.216 33.5726 142.567 32.6688 144.053 32.0522C145.54 31.4356 147.133 31.1183 148.742 31.1184H359.122C360.73 31.1183 362.324 31.4356 363.81 32.0522C365.297 32.6688 366.647 33.5726 367.785 34.712C368.923 35.8515 369.825 37.2042 370.441 38.693C371.056 40.1817 371.373 41.7774 371.373 43.3888V177.061L409 237.242Z" fill="#3F3D56"/>
<path d="M148.462 39.6831C147.404 39.6843 146.39 40.1058 145.642 40.8551C144.894 41.6044 144.473 42.6203 144.472 43.68V164.728C144.473 165.787 144.894 166.803 145.642 167.553C146.39 168.302 147.404 168.723 148.462 168.725H361.111C362.169 168.723 363.184 168.302 363.932 167.553C364.68 166.803 365.101 165.787 365.102 164.728V43.68C365.101 42.6203 364.68 41.6044 363.932 40.8551C363.184 40.1059 362.169 39.6844 361.111 39.6831H148.462Z" fill="white"/>
<path d="M149.353 184.712C149.026 184.713 148.707 184.807 148.431 184.983C148.156 185.16 147.937 185.412 147.8 185.709L136.785 209.69C136.665 209.951 136.613 210.238 136.633 210.525C136.653 210.811 136.744 211.088 136.899 211.33C137.054 211.572 137.267 211.771 137.518 211.909C137.77 212.047 138.052 212.119 138.339 212.119H369.964C370.255 212.119 370.542 212.044 370.797 211.902C371.051 211.76 371.265 211.555 371.419 211.307C371.572 211.058 371.659 210.775 371.672 210.483C371.685 210.191 371.624 209.901 371.493 209.64L359.521 185.659C359.38 185.374 359.162 185.134 358.891 184.967C358.621 184.799 358.309 184.711 357.992 184.712H149.353Z" fill="#2F2E41"/>
<path d="M253.932 37.6847C255.349 37.6847 256.497 36.5343 256.497 35.1153C256.497 33.6962 255.349 32.5459 253.932 32.5459C252.515 32.5459 251.366 33.6962 251.366 35.1153C251.366 36.5343 252.515 37.6847 253.932 37.6847Z" fill="white"/>
<path d="M231.165 216.687C230.789 216.687 230.424 216.812 230.125 217.041C229.827 217.27 229.612 217.591 229.514 217.954L226.751 228.232C226.682 228.486 226.673 228.752 226.724 229.01C226.775 229.268 226.885 229.511 227.045 229.719C227.204 229.928 227.41 230.097 227.645 230.214C227.881 230.33 228.14 230.39 228.402 230.39H280.945C281.218 230.39 281.486 230.325 281.729 230.2C281.971 230.075 282.18 229.894 282.338 229.671C282.496 229.449 282.599 229.191 282.638 228.921C282.676 228.651 282.65 228.375 282.561 228.117L279.009 217.839C278.892 217.503 278.674 217.211 278.384 217.005C278.095 216.798 277.748 216.687 277.392 216.687H231.165Z" fill="#2F2E41"/>
<path d="M371.373 174.149V176.433H136.319L136.496 176.148V174.149H371.373Z" fill="#2F2E41"/>
<path d="M364.817 79.9372C386.857 79.9372 404.724 62.0427 404.724 39.9686C404.724 17.8946 386.857 0 364.817 0C342.777 0 324.91 17.8946 324.91 39.9686C324.91 62.0427 342.777 79.9372 364.817 79.9372Z" fill="#E3793F"/>
<path d="M381.35 57.3835H348.284C347.679 57.3829 347.1 57.1421 346.672 56.7139C346.244 56.2857 346.004 55.7051 346.003 55.0996V35.1153C346.004 34.5097 346.245 33.9292 346.672 33.501C347.1 33.0728 347.679 32.832 348.284 32.8314H381.35C381.954 32.832 382.534 33.0728 382.962 33.501C383.389 33.9292 383.63 34.5097 383.63 35.1153V55.0996C383.63 55.7051 383.389 56.2857 382.962 56.7139C382.534 57.1421 381.954 57.3829 381.35 57.3835ZM348.284 35.1153V55.0996H381.352L381.35 35.1153L348.284 35.1153Z" fill="white"/>
<path d="M375.079 35.1153H354.555V25.9796C354.555 19.3626 358.871 14.56 364.817 14.56C370.763 14.56 375.079 19.3626 375.079 25.9796L375.079 35.1153ZM356.836 32.8314H372.799V25.9796C372.799 20.6007 369.516 16.8439 364.817 16.8439C360.118 16.8439 356.836 20.6007 356.836 25.9796L356.836 32.8314Z" fill="white"/>
<path d="M364.817 46.8204C366.076 46.8204 367.097 45.7978 367.097 44.5365C367.097 43.2751 366.076 42.2525 364.817 42.2525C363.558 42.2525 362.537 43.2751 362.537 44.5365C362.537 45.7978 363.558 46.8204 364.817 46.8204Z" fill="white"/>
<path d="M336.958 127.666H172.616C171.809 127.665 171.035 127.344 170.465 126.773C169.894 126.201 169.573 125.426 169.572 124.618V83.7893C169.573 82.9812 169.894 82.2065 170.465 81.6351C171.035 81.0637 171.809 80.7422 172.616 80.7413H336.958C337.765 80.7422 338.539 81.0637 339.109 81.6351C339.68 82.2065 340.001 82.9812 340.002 83.7893V124.618C340.001 125.426 339.68 126.201 339.109 126.773C338.539 127.344 337.765 127.665 336.958 127.666ZM172.616 81.9605C172.131 81.961 171.667 82.1539 171.325 82.4968C170.983 82.8396 170.79 83.3045 170.79 83.7893V124.618C170.79 125.103 170.983 125.568 171.325 125.911C171.667 126.254 172.131 126.447 172.616 126.447H336.958C337.442 126.447 337.907 126.254 338.249 125.911C338.591 125.568 338.784 125.103 338.784 124.618V83.7893C338.784 83.3045 338.591 82.8396 338.249 82.4967C337.907 82.1539 337.442 81.961 336.958 81.9605L172.616 81.9605Z" fill="#E6E6E6"/>
<path d="M198.151 115.053C204.998 115.053 210.548 109.495 210.548 102.637C210.548 95.78 204.998 90.2211 198.151 90.2211C191.304 90.2211 185.754 95.78 185.754 102.637C185.754 109.495 191.304 115.053 198.151 115.053Z" fill="#E6E6E6"/>
<path d="M226.783 94.3598C226.511 94.3594 226.242 94.4126 225.991 94.5164C225.74 94.6202 225.512 94.7726 225.319 94.9648C225.127 95.157 224.975 95.3853 224.871 95.6365C224.767 95.8878 224.713 96.1572 224.713 96.4292C224.713 96.7012 224.767 96.9706 224.871 97.2219C224.975 97.4731 225.127 97.7014 225.319 97.8936C225.512 98.0858 225.74 98.2382 225.991 98.342C226.242 98.4458 226.511 98.499 226.783 98.4985H324.188C324.736 98.4985 325.262 98.2805 325.649 97.8924C326.037 97.5044 326.255 96.978 326.255 96.4292C326.255 95.8804 326.037 95.354 325.649 94.9659C325.262 94.5778 324.736 94.3598 324.188 94.3598H226.783Z" fill="#E6E6E6"/>
<path d="M226.782 106.776C226.234 106.776 225.709 106.994 225.321 107.382C224.934 107.77 224.716 108.297 224.716 108.845C224.716 109.394 224.934 109.921 225.321 110.309C225.709 110.697 226.234 110.915 226.782 110.915H268.696C269.244 110.915 269.77 110.697 270.157 110.309C270.545 109.921 270.763 109.394 270.763 108.845C270.763 108.297 270.545 107.77 270.157 107.382C269.77 106.994 269.244 106.776 268.696 106.776H226.782Z" fill="#E6E6E6"/>
<path d="M135.915 107.613L105.535 123.789L105.15 110.309C115.066 108.651 124.5 105.765 133.223 101.066L136.4 93.2035C136.747 92.3469 137.309 91.5951 138.033 91.022C138.757 90.4489 139.618 90.0742 140.53 89.9347C141.442 89.7952 142.375 89.8956 143.237 90.2262C144.098 90.5568 144.859 91.1061 145.445 91.8203C146.302 92.8652 146.73 94.1972 146.643 95.5466C146.556 96.896 145.961 98.1618 144.977 99.0876L135.915 107.613Z" fill="#FFB8B8"/>
<path d="M61.6844 201.009C61.4627 200.195 61.4157 199.343 61.5463 198.509C61.6769 197.676 61.9822 196.879 62.4422 196.172L69.1158 185.915C70.6942 183.488 73.1163 181.736 75.912 180.997C78.7076 180.259 81.6776 180.586 84.2457 181.917C81.441 186.698 81.832 190.893 85.2143 194.538C79.9636 197.105 75.1107 200.419 70.8059 204.376C70.0201 204.912 69.1176 205.253 68.1736 205.37C67.2296 205.486 66.2715 205.375 65.3791 205.046C64.4867 204.716 63.6858 204.178 63.0431 203.476C62.4004 202.774 61.9346 201.928 61.6844 201.009Z" fill="#2F2E41"/>
<path d="M137.299 187.597C136.289 189.282 134.863 190.68 133.159 191.655C131.455 192.63 129.529 193.15 127.566 193.165L83.2306 193.501L81.3079 182.332L100.92 176.555L84.3843 163.845L102.458 142.662L135.287 173.306C137.205 175.097 138.452 177.493 138.818 180.095C139.185 182.696 138.648 185.344 137.299 187.597Z" fill="#2F2E41"/>
<path d="M76.3085 263.983H65.9254C56.603 199.983 47.1136 135.804 75.1548 111.85L108.227 117.242L103.997 145.358L85.5378 166.541L76.3085 263.983Z" fill="#2F2E41"/>
<path d="M85.4356 278.481C84.6228 278.703 83.7722 278.75 82.9399 278.62C82.1076 278.489 81.3123 278.183 80.6064 277.722L69.3326 276.205C66.91 274.624 65.1601 272.198 64.4224 269.398C63.6847 266.599 64.0117 263.624 65.3401 261.052C70.1144 263.861 74.3025 263.469 77.942 260.081C80.5135 265.281 84.7505 264.964 88.797 269.345C89.3328 270.132 89.6731 271.036 89.7894 271.982C89.9058 272.927 89.795 273.887 89.4661 274.781C89.1372 275.674 88.5999 276.476 87.8988 277.12C87.1977 277.764 86.3532 278.231 85.4356 278.481Z" fill="#2F2E41"/>
<path d="M100.92 69.0982L81.6924 64.4765C84.8858 57.9297 85.1488 50.6451 83.6151 42.9082L96.6901 42.523C97.0998 52.1441 98.3392 61.1326 100.92 69.0982Z" fill="#FFB8B8"/>
<path d="M106.205 128.838C92.2074 138.391 82.3174 129.165 74.7702 114.931C75.819 106.221 74.1209 95.7974 70.9759 84.4715C69.5772 79.476 70.0994 74.1368 72.4394 69.5081C74.7793 64.8794 78.767 61.2975 83.615 59.4696L100.151 66.4023C114.192 77.8648 116.956 90.2811 111.688 103.376L106.205 128.838Z" fill="#E3793F"/>
<path d="M65.9254 78.727L50.5431 86.8151L77.8467 102.991L81.6458 112.377C81.8994 113.003 82.0229 113.675 82.0089 114.351C81.9948 115.027 81.8435 115.692 81.5641 116.308C81.2847 116.923 80.8831 117.475 80.3838 117.93C79.8845 118.385 79.298 118.733 78.6599 118.953C77.9346 119.204 77.1613 119.283 76.4005 119.184C75.6396 119.085 74.9119 118.811 74.2744 118.383C73.6369 117.956 73.1069 117.387 72.7258 116.72C72.3448 116.053 72.123 115.306 72.078 114.539L71.6938 107.998L36.9913 96.5288C35.8221 96.1424 34.756 95.4945 33.8738 94.6343C32.9916 93.7742 32.3164 92.7242 31.8993 91.564C31.2914 89.8728 31.2605 88.0274 31.8114 86.3167C32.3622 84.606 33.4638 83.1265 34.9437 82.1097L62.849 62.9359L65.9254 78.727Z" fill="#FFB8B8"/>
<path d="M81.3078 80.2676C74.8924 77.4518 69.0588 80.5106 61.6954 82.9636L60.5417 62.5508C67.8533 58.6479 74.8243 57.5956 81.3078 60.6251L81.3078 80.2676Z" fill="#E3793F"/>
<path d="M88.9821 52.6342C95.762 52.6342 101.258 47.1295 101.258 40.3391C101.258 33.5487 95.762 28.044 88.9821 28.044C82.2021 28.044 76.7058 33.5487 76.7058 40.3391C76.7058 47.1295 82.2021 52.6342 88.9821 52.6342Z" fill="#FFB8B8"/>
<path d="M103.668 38.7878C91.5139 39.9801 82.2522 37.9892 76.333 32.3205V27.7553H102.637L103.668 38.7878Z" fill="#2F2E41"/>
</svg>
