<svg width="351" height="197" viewBox="0 0 351 197" fill="none" xmlns="http://www.w3.org/2000/svg">
<path d="M26.408 196.901L26.0386 196.221C30.9915 193.552 37.1556 190.231 40.3752 184.781C43.549 179.408 43.6202 172.112 40.561 165.74C37.9576 160.317 33.1753 155.458 26.7312 151.689C25.4601 150.946 24.1258 150.241 22.8354 149.56C19.7163 147.913 16.491 146.21 13.8316 143.794C10.1687 140.466 7.39733 134.881 9.46295 129.907C10.1423 128.319 11.2548 126.953 12.6743 125.963C14.0938 124.974 15.7633 124.401 17.4932 124.309L17.537 125.082C15.9522 125.165 14.4226 125.69 13.1219 126.596C11.8213 127.502 10.8016 128.753 10.1785 130.208C8.25901 134.83 10.8926 140.076 14.355 143.222C16.9417 145.572 20.1228 147.252 23.1991 148.876C24.4968 149.562 25.8388 150.27 27.1245 151.022C33.7027 154.869 38.5913 159.843 41.2617 165.406C44.4308 172.007 44.3477 179.581 41.0446 185.173C37.7153 190.809 31.4457 194.187 26.408 196.901Z" fill="#F1F1F1"/>
<path d="M22.4159 128.388C26.1693 128.388 29.2121 126.915 29.2121 125.099C29.2121 123.282 26.1693 121.81 22.4159 121.81C18.6624 121.81 15.6196 123.282 15.6196 125.099C15.6196 126.915 18.6624 128.388 22.4159 128.388Z" fill="#F1F1F1"/>
<path d="M27.8529 150.055C31.6064 150.055 34.6491 148.583 34.6491 146.767C34.6491 144.95 31.6064 143.478 27.8529 143.478C24.0994 143.478 21.0566 144.95 21.0566 146.767C21.0566 148.583 24.0994 150.055 27.8529 150.055Z" fill="#F1F1F1"/>
<path d="M15.4256 153.538C19.1791 153.538 22.2219 152.065 22.2219 150.249C22.2219 148.432 19.1791 146.96 15.4256 146.96C11.6722 146.96 8.62939 148.432 8.62939 150.249C8.62939 152.065 11.6722 153.538 15.4256 153.538Z" fill="#F1F1F1"/>
<path d="M34.8434 171.723C38.5968 171.723 41.6396 170.251 41.6396 168.434C41.6396 166.618 38.5968 165.145 34.8434 165.145C31.0899 165.145 28.0471 166.618 28.0471 168.434C28.0471 170.251 31.0899 171.723 34.8434 171.723Z" fill="#F1F1F1"/>
<path d="M48.4359 171.723C52.1894 171.723 55.2321 170.251 55.2321 168.434C55.2321 166.618 52.1894 165.145 48.4359 165.145C44.6824 165.145 41.6396 166.618 41.6396 168.434C41.6396 170.251 44.6824 171.723 48.4359 171.723Z" fill="#F1F1F1"/>
<path d="M351 5.96997H132.434V109.3H351V5.96997Z" fill="#E6E6E6"/>
<path d="M344.75 14.8308H138.684V101.043H344.75V14.8308Z" fill="white"/>
<path d="M350.907 0H132.341V9.25104H350.907V0Z" fill="#E3793F"/>
<path d="M139.241 5.99362C140.192 5.99362 140.962 5.22595 140.962 4.27898C140.962 3.332 140.192 2.56433 139.241 2.56433C138.291 2.56433 137.52 3.332 137.52 4.27898C137.52 5.22595 138.291 5.99362 139.241 5.99362Z" fill="white"/>
<path d="M145.773 5.99362C146.724 5.99362 147.494 5.22595 147.494 4.27898C147.494 3.332 146.724 2.56433 145.773 2.56433C144.823 2.56433 144.052 3.332 144.052 4.27898C144.052 5.22595 144.823 5.99362 145.773 5.99362Z" fill="white"/>
<path d="M152.306 5.99362C153.257 5.99362 154.027 5.22595 154.027 4.27898C154.027 3.332 153.257 2.56433 152.306 2.56433C151.356 2.56433 150.585 3.332 150.585 4.27898C150.585 5.22595 151.356 5.99362 152.306 5.99362Z" fill="white"/>
<path d="M230.852 35.2904C230.631 35.2904 230.419 35.3779 230.263 35.5337C230.106 35.6895 230.018 35.9008 230.018 36.1211C230.018 36.3414 230.106 36.5527 230.263 36.7085C230.419 36.8642 230.631 36.9518 230.852 36.9518H276.602C276.823 36.9518 277.035 36.8642 277.192 36.7085C277.348 36.5527 277.436 36.3414 277.436 36.1211C277.436 35.9008 277.348 35.6895 277.192 35.5337C277.035 35.3779 276.823 35.2904 276.602 35.2904H230.852Z" fill="#E6E6E6"/>
<path d="M230.852 40.275C230.631 40.2755 230.42 40.3632 230.264 40.519C230.108 40.6747 230.02 40.8857 230.02 41.1057C230.02 41.3257 230.108 41.5367 230.264 41.6924C230.42 41.8482 230.631 41.9359 230.852 41.9364H254.209C254.429 41.9359 254.641 41.8482 254.797 41.6924C254.953 41.5367 255.041 41.3257 255.041 41.1057C255.041 40.8857 254.953 40.6747 254.797 40.519C254.641 40.3632 254.429 40.2755 254.209 40.275H230.852Z" fill="#E6E6E6"/>
<path d="M229.701 64.4009C229.48 64.4009 229.268 64.4884 229.111 64.6442C228.955 64.8 228.867 65.0112 228.867 65.2316C228.867 65.4519 228.955 65.6631 229.111 65.8189C229.268 65.9747 229.48 66.0622 229.701 66.0622H315.482C315.704 66.0622 315.916 65.9747 316.072 65.8189C316.228 65.6631 316.316 65.4519 316.316 65.2316C316.316 65.0112 316.228 64.8 316.072 64.6442C315.916 64.4884 315.704 64.4009 315.482 64.4009H229.701Z" fill="#E6E6E6"/>
<path d="M229.701 69.3855C229.48 69.386 229.268 69.4737 229.112 69.6294C228.957 69.7852 228.869 69.9962 228.869 70.2162C228.869 70.4362 228.957 70.6472 229.112 70.8029C229.268 70.9587 229.48 71.0464 229.701 71.0469H293.089C293.309 71.0464 293.521 70.9587 293.677 70.8029C293.833 70.6472 293.921 70.4362 293.921 70.2162C293.921 69.9962 293.833 69.7852 293.677 69.6294C293.521 69.4737 293.309 69.386 293.089 69.3855H229.701Z" fill="#E6E6E6"/>
<path d="M229.701 74.2572C229.48 74.2577 229.268 74.3454 229.112 74.5011C228.957 74.6569 228.869 74.8679 228.869 75.0879C228.869 75.3079 228.957 75.5189 229.112 75.6746C229.268 75.8304 229.48 75.9181 229.701 75.9186H315.482C315.703 75.9181 315.915 75.8304 316.071 75.6746C316.227 75.5189 316.314 75.3079 316.314 75.0879C316.314 74.8679 316.227 74.6569 316.071 74.5011C315.915 74.3454 315.703 74.2577 315.482 74.2572H229.701Z" fill="#E6E6E6"/>
<path d="M229.701 79.2417C229.48 79.2422 229.268 79.3299 229.112 79.4856C228.957 79.6414 228.869 79.8524 228.869 80.0724C228.869 80.2924 228.957 80.5034 229.112 80.6591C229.268 80.8149 229.48 80.9026 229.701 80.9031H293.089C293.309 80.9026 293.521 80.8149 293.677 80.6591C293.833 80.5034 293.921 80.2924 293.921 80.0724C293.921 79.8524 293.833 79.6414 293.677 79.4856C293.521 79.3299 293.309 79.2422 293.089 79.2417H229.701Z" fill="#E6E6E6"/>
<path d="M184.854 67.772C188.863 67.772 192.114 64.5336 192.114 60.5388C192.114 56.544 188.863 53.3055 184.854 53.3055C180.844 53.3055 177.594 56.544 177.594 60.5388C177.594 64.5336 180.844 67.772 184.854 67.772Z" fill="#A0616A"/>
<path d="M182.555 54.7522C182.555 54.7522 185.943 55.6564 187.697 56.018C189.452 56.3797 189.27 55.355 189.27 55.355C189.27 55.355 191.569 55.6564 191.448 55.4153C191.327 55.1741 192.416 53.9083 191.146 52.4617C189.875 51.015 190.238 49.93 190.238 49.93H189.149L188.847 49.5081H187.153C187.153 49.5081 185.28 47.8718 181.952 48.3541C178.625 48.8363 174.69 50.1109 174.327 52.1C174.277 52.3698 174.213 52.6696 174.137 52.9862C173.227 56.8134 175.161 60.3943 177.166 63.7823C177.659 64.6149 180.042 66.4306 179.981 65.1849C179.92 63.9392 177.836 61.1416 179.288 60.9608C180.74 60.7799 183.22 57.103 182.555 54.7522Z" fill="#2F2E41"/>
<path d="M180.735 83.9227C179.334 83.811 177.944 83.5835 176.58 83.2425L176.657 81.8001L177.292 70.3309L177.298 70.2429H190.087L192.094 80.8033L192.364 82.2281C191.835 82.4334 191.299 82.6269 190.752 82.7969C190.746 82.7969 190.746 82.8028 190.74 82.8028C189.981 83.0373 189.21 83.2425 188.433 83.4125C187.4 83.6346 186.354 83.7951 185.302 83.8934C184.489 83.9738 183.671 84.0129 182.854 84.0106C182.148 84.0107 181.435 83.9814 180.735 83.9227Z" fill="#E3793F"/>
<path d="M172.513 81.8822C171.984 81.6535 171.472 81.4072 170.966 81.1492L170.748 81.0378C170.601 80.9616 170.448 80.8795 170.301 80.7974C170.1 80.686 169.906 80.5746 169.718 80.4632C169.535 80.3576 169.347 80.2462 169.165 80.1348C169.153 80.129 169.147 80.1231 169.135 80.1231C168.5 79.7185 167.876 79.3022 167.275 78.8507C167.175 78.7745 167.075 78.6982 166.975 78.622L166.869 76.9333L167.022 76.8395L177.292 70.3309L177.433 70.2429L177.445 70.2371L178.893 70.2429V75.614C179.711 76.7926 180.264 79.2611 180.606 82.492C180.653 82.9552 180.694 83.4302 180.735 83.9227C179.334 83.811 177.944 83.5835 176.58 83.2425C176.433 83.2132 176.292 83.178 176.145 83.137C175.287 82.9133 174.442 82.6432 173.614 82.3278C173.361 82.234 173.114 82.1343 172.867 82.0346L172.843 82.0229C172.737 81.976 172.619 81.9291 172.513 81.8822Z" fill="#2F2E41"/>
<path d="M170.301 80.7973C170.1 80.6859 169.906 80.5745 169.718 80.4631C169.535 80.3575 169.347 80.2461 169.165 80.1347C169.153 80.1289 169.147 80.123 169.135 80.123C168.5 79.7184 167.876 79.3021 167.275 78.8506C167.175 78.7744 167.075 78.6982 166.975 78.6219C166.928 78.5809 166.881 78.5457 166.828 78.5047C166.452 78.2174 166.087 77.9183 165.733 77.6017C165.716 77.59 165.704 77.5723 165.686 77.5606C166.043 77.2874 166.443 77.0754 166.869 76.9332L167.287 77.0564L170.265 77.9476L170.283 79.1496L170.301 80.7973Z" fill="#2F2E41"/>
<path d="M195.378 80.815C195.201 80.9088 195.025 81.0026 194.848 81.0906C194.807 81.114 194.772 81.1316 194.736 81.1492C194.501 81.2665 194.271 81.3837 194.036 81.4951C194.03 81.501 194.018 81.501 194.018 81.5069C194.006 81.5128 193.989 81.5186 193.977 81.5245C193.448 81.7766 192.912 82.0111 192.364 82.2281C191.835 82.4333 191.299 82.6269 190.752 82.7969C190.746 82.7969 190.746 82.8027 190.74 82.8027C189.981 83.0373 189.21 83.2425 188.433 83.4125C188.424 82.9309 188.488 82.4506 188.621 81.9877L188.627 81.9056L189.134 73.7435L188.456 70.2429L190.399 69.9556L201.081 75.6843C201.081 75.6843 199.904 76.857 195.072 79.3549C194.644 79.5758 195.272 80.3107 195.378 80.815Z" fill="#2F2E41"/>
<path d="M185.173 82.4861C184.408 82.5565 183.631 82.5917 182.854 82.5917C182.101 82.5917 181.353 82.5623 180.606 82.492C180.653 82.9552 180.694 83.4302 180.735 83.9227C181.436 83.9814 182.148 84.0107 182.854 84.0107C183.672 84.013 184.489 83.9738 185.302 83.8934C186.354 83.7952 187.4 83.6346 188.433 83.4126C188.424 82.9309 188.488 82.4507 188.622 81.9877L188.627 81.9056C187.491 82.1811 186.337 82.3751 185.173 82.4861ZM207.413 49.5796C206.17 46.0203 204.162 42.7742 201.529 40.0675C198.897 37.3608 195.704 35.2587 192.173 33.9079C188.641 32.557 184.857 31.9898 181.083 32.2459C177.309 32.5021 173.636 33.5753 170.321 35.3907C167.006 37.2062 164.129 39.7202 161.889 42.7575C159.65 45.7948 158.102 49.2823 157.354 52.9767C156.607 56.6711 156.677 60.4835 157.56 64.1482C158.443 67.8128 160.117 71.2415 162.467 74.195C162.702 74.4882 162.944 74.7814 163.191 75.0628C163.215 75.0862 163.226 75.1039 163.244 75.1214C163.852 75.8196 164.498 76.4832 165.18 77.1092C165.345 77.2616 165.516 77.4141 165.686 77.5607C165.704 77.5724 165.716 77.59 165.733 77.6017C166.087 77.9184 166.452 78.2174 166.828 78.5047C166.881 78.5458 166.928 78.581 166.975 78.622C167.075 78.6982 167.176 78.7745 167.275 78.8507C167.876 79.3022 168.5 79.7185 169.135 80.1231C169.147 80.1231 169.153 80.1289 169.165 80.1348C169.347 80.2462 169.535 80.3576 169.718 80.4632C169.906 80.5746 170.101 80.686 170.301 80.7974C170.448 80.8795 170.601 80.9616 170.748 81.0378L170.966 81.1492C171.472 81.4072 171.984 81.6535 172.513 81.8822C172.619 81.9291 172.737 81.976 172.843 82.0229L172.866 82.0346C173.114 82.1343 173.361 82.234 173.614 82.3278C174.442 82.6432 175.287 82.9133 176.145 83.137C176.292 83.178 176.433 83.2132 176.58 83.2425C177.944 83.5835 179.334 83.811 180.735 83.9227C181.436 83.9813 182.148 84.0106 182.854 84.0106C183.672 84.013 184.489 83.9738 185.302 83.8934C186.354 83.7951 187.4 83.6346 188.433 83.4126C189.21 83.2425 189.981 83.0373 190.74 82.8028C190.746 82.8028 190.746 82.7969 190.752 82.7969C191.299 82.6269 191.835 82.4333 192.365 82.2281C192.912 82.0112 193.448 81.7766 193.977 81.5245C193.989 81.5186 194.007 81.5128 194.018 81.5069C194.018 81.501 194.03 81.501 194.036 81.4952C194.272 81.3838 194.501 81.2665 194.737 81.1492C194.772 81.1316 194.807 81.114 194.848 81.0906C195.025 81.0026 195.201 80.9088 195.378 80.815C195.39 80.8091 195.395 80.8033 195.407 80.7974C195.872 80.5394 196.331 80.2697 196.785 79.9824C196.908 79.9062 197.032 79.8299 197.155 79.742C197.338 79.6305 197.514 79.5074 197.685 79.3843C197.915 79.2259 198.144 79.0618 198.368 78.8917C198.442 78.8442 198.513 78.7913 198.58 78.7334C199.127 78.323 199.657 77.8891 200.163 77.4317C204.001 74.0243 206.738 69.5593 208.029 64.6016C209.32 59.6438 209.105 54.416 207.413 49.5796L207.413 49.5796ZM199.721 75.9189C199.084 76.5161 198.416 77.0797 197.72 77.6076C197.567 77.7249 197.408 77.8421 197.25 77.9477C197.096 78.065 196.944 78.1764 196.785 78.2819C196.649 78.3757 196.514 78.4696 196.373 78.5575C196.361 78.5692 196.343 78.5751 196.331 78.5868C196.231 78.6572 196.125 78.7217 196.025 78.7862C195.713 78.9797 195.39 79.1732 195.072 79.355C194.995 79.396 194.925 79.4429 194.848 79.4839C194.807 79.5074 194.766 79.5309 194.719 79.5543C194.542 79.654 194.366 79.742 194.189 79.8358C194.166 79.8533 194.136 79.8592 194.113 79.8768C194.104 79.8782 194.096 79.8823 194.089 79.8885C193.966 79.9531 193.842 80.0117 193.718 80.0703C193.612 80.1231 193.512 80.1758 193.406 80.2227C192.977 80.428 192.535 80.6215 192.094 80.8032C191.629 80.9909 191.158 81.1609 190.681 81.3192C190.564 81.3603 190.44 81.4072 190.317 81.4424C189.757 81.6183 189.198 81.7766 188.627 81.9056C187.491 82.1811 186.337 82.3751 185.173 82.4861C184.408 82.5564 183.631 82.5917 182.854 82.5917C182.101 82.5917 181.353 82.5623 180.606 82.492C179.272 82.3704 177.952 82.139 176.657 81.8001C176.61 81.7883 176.557 81.7766 176.51 81.7649C175.447 81.489 174.407 81.1362 173.396 80.7094C173.343 80.686 173.284 80.6684 173.237 80.6449C173.178 80.6215 173.125 80.6039 173.078 80.5804C173.019 80.557 172.967 80.5335 172.914 80.51C172.472 80.3166 172.043 80.1055 171.613 79.8885L171.413 79.783C171.03 79.5836 170.654 79.3784 170.283 79.1497C170.153 79.0793 170.018 78.9973 169.889 78.9152C169.741 78.8272 169.594 78.7334 169.453 78.6396C169.418 78.6161 169.383 78.5927 169.347 78.5692C169.018 78.3464 168.682 78.1236 168.364 77.8832C168.141 77.719 167.923 77.5607 167.705 77.3906C167.564 77.2851 167.423 77.1737 167.287 77.0564C167.199 76.9919 167.111 76.9157 167.022 76.8395C166.905 76.7398 166.787 76.6401 166.669 76.5346C166.487 76.388 166.316 76.2238 166.151 76.0713C165.489 75.4629 164.862 74.8168 164.274 74.1363C164.074 73.9135 163.885 73.6907 163.703 73.4562C163.661 73.41 163.621 73.361 163.585 73.3096C160.622 69.583 158.812 65.0779 158.375 60.3438C157.939 55.6096 158.894 50.8512 161.126 46.6489C163.357 42.4467 166.768 38.9823 170.942 36.6784C175.116 34.3745 179.872 33.3307 184.631 33.6743C189.391 34.018 193.947 35.7343 197.744 38.6137C201.54 41.4932 204.414 45.4113 206.014 49.8902C207.614 54.3692 207.871 59.2152 206.753 63.8371C205.636 68.459 203.193 72.657 199.721 75.9189L199.721 75.9189Z" fill="#3F3D56"/>
<path d="M63.4715 192.184L68.2327 192.184L70.4976 173.887L63.4707 173.887L63.4715 192.184Z" fill="#A0616A"/>
<path d="M62.2571 190.635L71.6336 190.635H71.634C73.2187 190.635 74.7385 191.262 75.8591 192.379C76.9797 193.495 77.6093 195.009 77.6094 196.588V196.782L62.2574 196.782L62.2571 190.635Z" fill="#2F2E41"/>
<path d="M81.336 192.184L86.0972 192.184L88.3621 173.887L81.3352 173.887L81.336 192.184Z" fill="#A0616A"/>
<path d="M80.1216 190.635L89.4981 190.635H89.4985C91.0832 190.635 92.603 191.262 93.7236 192.379C94.8442 193.495 95.4738 195.009 95.4739 196.588V196.782L80.1219 196.782L80.1216 190.635Z" fill="#2F2E41"/>
<path d="M49.025 119.884C49.4147 119.469 49.7081 118.973 49.8847 118.432C50.0612 117.891 50.1166 117.318 50.0468 116.753C49.9771 116.189 49.784 115.646 49.4811 115.164C49.1781 114.682 48.7728 114.272 48.2936 113.963L51.6017 100.535L44.8084 102.946L42.7084 115.328C42.2405 116.165 42.0967 117.143 42.3045 118.078C42.5122 119.013 43.057 119.84 43.8356 120.401C44.6142 120.963 45.5725 121.221 46.5289 121.125C47.4854 121.03 48.3735 120.588 49.025 119.884Z" fill="#9E616A"/>
<path d="M99.5662 118.723C99.1765 118.308 98.8831 117.812 98.7065 117.271C98.53 116.73 98.4746 116.157 98.5444 115.593C98.6141 115.028 98.8072 114.486 99.1101 114.004C99.413 113.521 99.8184 113.111 100.298 112.802L96.9895 99.374L103.783 101.786L105.883 114.167C106.351 115.004 106.494 115.982 106.287 116.917C106.079 117.853 105.534 118.679 104.756 119.241C103.977 119.802 103.019 120.06 102.062 119.965C101.106 119.869 100.218 119.428 99.5662 118.723Z" fill="#9E616A"/>
<path d="M55.2893 110.472L61.8887 187.494L71.5448 186.617L75.4093 127.089L78.8494 150.66L79.5383 188.101L88.2764 187.52L93.1285 147.242L91.9382 108.233L58.7659 104.886L55.2893 110.472Z" fill="#2F2E41"/>
<path d="M73.443 40.3824C78.9737 40.3824 83.4571 35.9155 83.4571 30.4053C83.4571 24.8951 78.9737 20.4282 73.443 20.4282C67.9124 20.4282 63.429 24.8951 63.429 30.4053C63.429 35.9155 67.9124 40.3824 73.443 40.3824Z" fill="#A0616A"/>
<path d="M70.2718 22.4237C70.2718 22.4237 74.9451 23.6708 77.3651 24.1697C79.7852 24.6685 79.5349 23.2551 79.5349 23.2551C79.5349 23.2551 82.706 23.6708 82.5391 23.3382C82.3722 23.0057 83.8743 21.2597 82.1218 19.2643C80.3694 17.2688 80.8701 15.7723 80.8701 15.7723H79.368L78.9507 15.1903H76.6141C76.6141 15.1903 74.0307 12.9334 69.4409 13.5985C64.8511 14.2636 59.4232 16.0217 58.9225 18.7654C58.8546 19.1376 58.7652 19.551 58.6614 19.9877C57.4063 25.2667 60.073 30.2061 62.8388 34.8792C63.5186 36.0277 66.8065 38.5321 66.7224 36.8138C66.6383 35.0956 63.7626 31.2368 65.7655 30.9873C67.7683 30.7379 71.1898 25.6662 70.2718 22.4237Z" fill="#2F2E41"/>
<path d="M63.0225 43.7905H80.6585L93.1285 109.403C93.1285 109.403 82.2569 110.329 76.0432 112.651C69.8294 114.972 59.4998 107.348 59.4998 107.348L63.0225 43.7905Z" fill="#E3793F"/>
<path d="M65.2242 51.2001V43.7906L63.2273 43.7784L48.6379 53.0201L51.8037 103.654C51.8037 103.654 55.5505 120.546 61.2336 120.371C66.9167 120.196 71.2987 59.9759 65.2242 51.2001Z" fill="#2F2E41"/>
<path d="M53.3243 54.4189L48.638 53.0201C48.638 53.0201 45.1688 54.0319 45.1688 57.5142C45.1688 60.9966 42.1797 110.472 42.1797 110.472L51.6753 111.308L53.7127 86.1466L53.3243 54.4189Z" fill="#2F2E41"/>
<path d="M79.3441 48.6151L78.41 43.7907L81.0917 43.3916L90.8006 47.2608C90.8006 47.2608 99.5387 110.91 95.6551 112.844C91.7715 114.779 89.1493 113.28 89.1493 113.28C89.1493 113.28 76.3758 66.3362 78.6367 59.9906L79.3441 48.6151Z" fill="#2F2E41"/>
<path d="M84.0044 48.2281L85.6613 47.5096C85.6613 47.5096 90.5248 45.1084 93.2841 49.9571C96.0435 54.8058 105.752 108.975 105.752 108.975L97.7638 110.472L91.7914 90.977L84.0044 48.2281Z" fill="#2F2E41"/>
<path d="M148.352 197H0.388357C0.285358 197 0.186578 196.959 0.113747 196.887C0.0409158 196.814 0 196.716 0 196.613C0 196.51 0.0409158 196.412 0.113747 196.34C0.186578 196.267 0.285358 196.226 0.388357 196.226H148.352C148.455 196.226 148.554 196.267 148.627 196.34C148.7 196.412 148.741 196.51 148.741 196.613C148.741 196.716 148.7 196.814 148.627 196.887C148.554 196.959 148.455 197 148.352 197Z" fill="#CACACA"/>
</svg>
