<svg width="359" height="281" viewBox="0 0 359 281" fill="none" xmlns="http://www.w3.org/2000/svg">
<g clip-path="url(#clip0)">
<path d="M326.784 256.523C319.902 263.869 312.016 270.212 303.359 275.364C303.161 275.486 302.959 275.6 302.756 275.718L288.742 263.352C288.889 263.216 289.052 263.063 289.227 262.895C299.67 253.009 351.51 183.893 354.965 167.062C354.726 168.464 358.082 223.452 326.784 256.523Z" fill="#F0F0F0"/>
<path d="M306.064 277.75C305.799 277.813 305.529 277.872 305.259 277.926L294.744 268.648C294.95 268.577 295.19 268.492 295.465 268.398C299.976 266.805 313.412 261.998 326.783 256.522C341.15 250.636 355.449 243.986 358.524 239.726C357.864 240.715 337.544 270.732 306.064 277.75Z" fill="#F0F0F0"/>
<path d="M326.59 73.5931H325.092V32.7C325.092 29.5919 324.478 26.5143 323.285 23.6428C322.092 20.7712 320.343 18.1621 318.139 15.9644C315.934 13.7666 313.317 12.0232 310.437 10.8338C307.557 9.64441 304.47 9.03223 301.352 9.03223H214.45C211.332 9.03222 208.245 9.6444 205.365 10.8338C202.484 12.0232 199.867 13.7666 197.663 15.9643C195.458 18.1621 193.71 20.7712 192.517 23.6427C191.324 26.5142 190.709 29.5918 190.709 32.6999V257.042C190.709 260.15 191.324 263.228 192.517 266.1C193.71 268.971 195.458 271.58 197.663 273.778C199.867 275.976 202.484 277.719 205.365 278.909C208.245 280.098 211.332 280.71 214.45 280.71H301.352C304.47 280.71 307.557 280.098 310.437 278.909C313.317 277.719 315.934 275.976 318.139 273.778C320.343 271.58 322.092 268.971 323.285 266.1C324.478 263.228 325.092 260.151 325.092 257.042V102.701H326.59V73.5931Z" fill="#3F3D56"/>
<path d="M320.039 32.8626V256.878C320.039 259.2 319.58 261.498 318.689 263.642C317.798 265.787 316.492 267.735 314.845 269.376C313.198 271.017 311.243 272.319 309.092 273.206C306.941 274.094 304.635 274.55 302.307 274.55H214.986C212.659 274.55 210.354 274.093 208.203 273.205C206.052 272.317 204.098 271.015 202.452 269.374C200.806 267.733 199.501 265.785 198.61 263.641C197.719 261.497 197.261 259.199 197.261 256.878V32.8626C197.261 30.5419 197.719 28.244 198.61 26.0999C199.501 23.9559 200.806 22.0077 202.452 20.3668C204.098 18.7258 206.052 17.4242 208.203 16.5362C210.354 15.6482 212.659 15.1912 214.986 15.1914H225.583C225.063 16.4665 224.865 17.8495 225.007 19.2188C225.149 20.588 225.626 21.9016 226.396 23.0439C227.166 24.1862 228.207 25.1223 229.425 25.7698C230.643 26.4174 232.003 26.7565 233.383 26.7574H283.168C284.549 26.7587 285.91 26.421 287.129 25.7741C288.349 25.1272 289.39 24.1909 290.161 23.0479C290.932 21.905 291.409 20.5904 291.55 19.2202C291.69 17.8501 291.491 16.4664 290.968 15.1914H302.307C304.635 15.1906 306.941 15.647 309.092 16.5347C311.243 17.4224 313.198 18.7239 314.845 20.3649C316.492 22.0059 317.798 23.9543 318.689 26.0987C319.58 28.243 320.039 30.5415 320.039 32.8626V32.8626Z" fill="white"/>
<path d="M292.876 149.273H216.124C214.78 149.272 213.491 148.739 212.54 147.791C211.59 146.843 211.055 145.558 211.053 144.218V141.702C211.055 140.362 211.59 139.077 212.54 138.129C213.491 137.181 214.78 136.648 216.124 136.647H292.876C294.221 136.648 295.51 137.181 296.46 138.129C297.411 139.077 297.946 140.362 297.947 141.702V144.218C297.946 145.558 297.411 146.843 296.46 147.791C295.51 148.739 294.221 149.272 292.876 149.273Z" fill="#F0F0F0"/>
<path d="M292.876 170.963H216.124C214.78 170.962 213.491 170.429 212.54 169.481C211.59 168.533 211.055 167.249 211.053 165.908V163.392C211.055 162.052 211.59 160.767 212.54 159.819C213.491 158.871 214.78 158.338 216.124 158.337H292.876C294.221 158.338 295.51 158.871 296.46 159.819C297.411 160.767 297.946 162.052 297.947 163.392V165.908C297.946 167.249 297.411 168.533 296.46 169.481C295.51 170.429 294.221 170.962 292.876 170.963V170.963Z" fill="#F0F0F0"/>
<path d="M296.716 144.422H219.963C218.552 144.421 217.198 143.861 216.2 142.866C215.202 141.871 214.641 140.522 214.639 139.114V136.598C214.641 135.191 215.202 133.842 216.2 132.847C217.198 131.852 218.552 131.292 219.963 131.29H296.716C298.127 131.292 299.48 131.852 300.479 132.847C301.477 133.842 302.038 135.191 302.04 136.598V139.114C302.038 140.522 301.477 141.871 300.479 142.866C299.48 143.861 298.127 144.421 296.716 144.422V144.422ZM219.963 132.301C218.821 132.303 217.725 132.756 216.917 133.561C216.109 134.367 215.655 135.459 215.653 136.598V139.114C215.655 140.254 216.109 141.346 216.917 142.151C217.725 142.957 218.821 143.41 219.963 143.411H296.716C297.858 143.41 298.954 142.957 299.762 142.151C300.57 141.346 301.024 140.254 301.026 139.114V136.598C301.024 135.459 300.57 134.367 299.762 133.561C298.954 132.756 297.858 132.303 296.716 132.301H219.963Z" fill="#3F3D56"/>
<path d="M296.716 166.113H219.963C218.552 166.111 217.198 165.551 216.2 164.556C215.202 163.561 214.641 162.212 214.639 160.805V158.288C214.641 156.881 215.202 155.532 216.2 154.537C217.198 153.542 218.552 152.982 219.963 152.98H296.716C298.127 152.982 299.48 153.542 300.479 154.537C301.477 155.532 302.038 156.881 302.04 158.288V160.805C302.038 162.212 301.477 163.561 300.479 164.556C299.48 165.551 298.127 166.111 296.716 166.113V166.113ZM219.963 153.992C218.821 153.993 217.725 154.446 216.917 155.251C216.109 156.057 215.655 157.149 215.653 158.288V160.805C215.655 161.944 216.109 163.036 216.917 163.842C217.725 164.647 218.821 165.1 219.963 165.102H296.716C297.858 165.1 298.954 164.647 299.762 163.842C300.57 163.036 301.024 161.944 301.026 160.805V158.288C301.024 157.149 300.57 156.057 299.762 155.251C298.954 154.446 297.858 153.993 296.716 153.992H219.963Z" fill="#3F3D56"/>
<path d="M320.039 32.8626V81.5892C312.273 83.6261 304.141 83.8598 296.27 82.2723C288.399 80.6848 280.999 77.3183 274.637 72.432C268.276 67.5456 263.124 61.2696 259.578 54.0868C256.031 46.9039 254.185 39.0057 254.18 30.9998C254.18 29.5708 254.238 28.1567 254.353 26.7574H283.168C284.549 26.7587 285.91 26.421 287.129 25.7741C288.349 25.1272 289.39 24.1909 290.161 23.0479C290.932 21.905 291.409 20.5904 291.55 19.2202C291.69 17.8501 291.491 16.4664 290.968 15.1914H302.307C304.635 15.1906 306.941 15.647 309.092 16.5347C311.243 17.4224 313.198 18.7239 314.845 20.3649C316.491 22.0059 317.798 23.9543 318.689 26.0987C319.58 28.243 320.039 30.5415 320.039 32.8626V32.8626Z" fill="#F0F0F0"/>
<path d="M241.382 271.507C241.382 272.534 241.344 273.548 241.261 274.55H214.986C212.659 274.55 210.354 274.093 208.203 273.205C206.052 272.317 204.098 271.015 202.452 269.374C200.806 267.733 199.501 265.785 198.61 263.641C197.719 261.497 197.261 259.199 197.261 256.879V232.917C202.768 232.203 208.365 232.667 213.679 234.279C218.992 235.891 223.9 238.614 228.075 242.265C232.249 245.917 235.596 250.413 237.89 255.456C240.185 260.498 241.375 265.97 241.382 271.507H241.382Z" fill="#E3793F"/>
<path d="M29.4711 229.463C30.2094 229.787 31.0463 229.805 31.7983 229.515C32.5503 229.224 33.156 228.648 33.4825 227.913L57.1518 174.432C57.6935 173.208 57.8591 171.852 57.6275 170.534C57.3958 169.217 56.7775 167.997 55.8506 167.03C54.9237 166.062 53.7299 165.391 52.4201 165.1C51.1104 164.809 49.7436 164.912 48.4925 165.396H48.4924C47.047 165.946 45.8375 166.979 45.0697 168.318C44.9476 168.53 44.8368 168.748 44.7379 168.971L21.0686 222.452C20.9072 222.816 20.8195 223.209 20.8104 223.607C20.8012 224.005 20.8709 224.401 21.0153 224.773C21.1597 225.144 21.3761 225.484 21.6521 225.772C21.9281 226.06 22.2584 226.291 22.6239 226.451L29.4711 229.463Z" fill="#E3793F"/>
<path d="M56.18 196.389L32.7681 191.202L38.5628 175.919C39.5499 172.183 41.8473 168.924 45.0381 166.733C48.2289 164.542 52.1019 163.563 55.9545 163.975L56.1801 163.999L56.18 196.389Z" fill="#2F2E41"/>
<path d="M103.468 230.228C102.78 230.227 102.106 230.027 101.529 229.652C100.952 229.278 100.497 228.744 100.217 228.117L76.548 174.636C75.7953 172.935 75.7253 171.01 76.3525 169.259C76.9797 167.507 78.2563 166.062 79.9198 165.22C81.5833 164.379 83.507 164.204 85.2953 164.734C87.0836 165.263 88.6003 166.456 89.5336 168.066V168.066C89.6647 168.293 89.7837 168.527 89.8898 168.767L113.559 222.248C113.939 223.107 113.961 224.081 113.621 224.956C113.281 225.831 112.606 226.535 111.745 226.914L104.665 230.028L104.662 230.02C104.279 230.158 103.875 230.228 103.468 230.228V230.228Z" fill="#E3793F"/>
<path d="M70.7279 211.863C69.9213 211.864 69.148 212.184 68.5776 212.753C68.0073 213.321 67.6864 214.092 67.6855 214.896V277.082C67.6864 277.886 68.0073 278.657 68.5776 279.226C69.148 279.794 69.9213 280.114 70.7279 280.115H78.2119C79.0185 280.114 79.7919 279.794 80.3622 279.226C80.9326 278.657 81.2534 277.886 81.2543 277.082V214.896C81.2534 214.092 80.9326 213.321 80.3622 212.753C79.7919 212.184 79.0185 211.864 78.2119 211.863H70.7279Z" fill="#E3793F"/>
<path d="M55.9254 211.863C55.1188 211.864 54.3455 212.184 53.7751 212.753C53.2048 213.321 52.884 214.092 52.8831 214.896V277.082C52.884 277.886 53.2048 278.657 53.7751 279.226C54.3455 279.794 55.1188 280.114 55.9254 280.115H63.4095C64.2161 280.114 64.9895 279.794 65.5598 279.226C66.1302 278.657 66.451 277.886 66.4519 277.082V214.896C66.451 214.092 66.1302 213.321 65.5598 212.753C64.9895 212.184 64.2161 211.864 63.4095 211.863H55.9254Z" fill="#E3793F"/>
<path d="M66.845 146.713C81.1272 146.713 92.7052 135.17 92.7052 120.932C92.7052 106.693 81.1272 95.1504 66.845 95.1504C52.5629 95.1504 40.9849 106.693 40.9849 120.932C40.9849 135.17 52.5629 146.713 66.845 146.713Z" fill="#E3793F"/>
<path d="M75.4508 131.754C77.1271 131.708 79.2134 131.65 80.8206 130.479C81.2992 130.116 81.6924 129.654 81.9727 129.123C82.253 128.593 82.4136 128.008 82.4432 127.409C82.4723 126.984 82.4023 126.558 82.2386 126.164C82.075 125.769 81.8222 125.419 81.4999 125.138C80.6605 124.431 79.4347 124.265 78.1136 124.652L79.4823 114.68L78.4776 114.543L76.8686 126.266L77.7076 125.882C78.6803 125.437 80.0156 125.211 80.8453 125.91C81.049 126.093 81.2078 126.32 81.3092 126.574C81.4105 126.828 81.4518 127.102 81.4298 127.374C81.4052 127.819 81.2846 128.255 81.0763 128.65C80.8679 129.044 80.5767 129.39 80.2224 129.663C78.9716 130.574 77.3087 130.691 75.4226 130.744L75.4508 131.754Z" fill="#2F2E41"/>
<path d="M89.9131 115.54H84.4512V116.551H89.9131V115.54Z" fill="#2F2E41"/>
<path d="M72.6728 115.54H67.2109V116.551H72.6728V115.54Z" fill="#2F2E41"/>
<path d="M92.4687 230.542L83.1611 162.803C83.0613 162.077 82.7009 161.411 82.1468 160.929C81.5926 160.447 80.8821 160.182 80.1467 160.182H73.1211C73.1504 160.015 73.1656 159.846 73.1667 159.676V157.149C73.1667 156.344 72.8461 155.573 72.2756 155.004C71.705 154.435 70.9312 154.115 70.1243 154.115H64.0396C63.2327 154.115 62.4589 154.435 61.8883 155.004C61.3178 155.573 60.9972 156.344 60.9972 157.149V159.676C60.9983 159.846 61.0135 160.015 61.0428 160.182H54.0172C53.2818 160.182 52.5713 160.447 52.0171 160.929C51.463 161.411 51.1026 162.077 51.0028 162.803L41.6951 230.542C41.6362 230.971 41.6701 231.408 41.7945 231.823C41.919 232.238 42.1311 232.621 42.4167 232.948C42.7023 233.274 43.0546 233.536 43.4501 233.715C43.8455 233.894 44.2749 233.987 44.7093 233.987H89.4545C89.889 233.987 90.3183 233.894 90.7138 233.715C91.1092 233.536 91.4616 233.274 91.7471 232.948C92.0327 232.621 92.2449 232.238 92.3693 231.823C92.4938 231.408 92.5277 230.971 92.4687 230.542V230.542Z" fill="#2F2E41"/>
<path d="M77.9836 196.388V163.999L78.2092 163.974C82.0665 163.563 85.9438 164.545 89.1367 166.742C92.3295 168.938 94.6261 172.204 95.6093 175.945L101.396 191.201L77.9836 196.388Z" fill="#2F2E41"/>
<path d="M65.5428 147.518L47.6559 140.596C44.7311 139.464 41.7898 138.367 38.8805 137.196C37.6342 136.763 36.4862 136.089 35.5026 135.211C34.6463 134.308 34.0627 133.182 33.8186 131.963C33.1983 129.348 33.3104 126.49 33.3547 123.822C33.389 120.904 33.6299 117.992 34.0756 115.107C34.8567 109.686 36.6911 104.47 39.4759 99.7492C44.4922 91.5439 53.1348 85.3705 63.0761 85.8632C67.6785 86.0913 72.3074 87.7378 75.727 90.8749C76.0837 91.2999 76.4839 91.6866 76.9211 92.0287C77.2251 92.1423 77.5558 92.1645 77.8722 92.0924C78.2895 92.0656 78.7071 92.0452 79.1251 92.0311C80.5754 91.9701 82.0283 92.0308 83.4683 92.2127C86.0927 92.4954 88.58 93.525 90.6333 95.1787C92.3422 96.6443 93.7326 98.7132 93.8757 101.012C93.9448 102.068 93.7697 103.125 93.3641 104.102C92.9584 105.08 92.333 105.951 91.536 106.649C89.402 108.442 86.3573 107.812 83.7975 107.677L74.42 107.181L69.6688 106.93C68.6905 106.879 68.6933 108.396 69.6688 108.447L82.2971 109.114C84.3265 109.221 86.418 109.484 88.449 109.363C90.0096 109.292 91.4997 108.695 92.6745 107.668C93.7473 106.685 94.5465 105.442 94.9941 104.06C95.4417 102.678 95.5224 101.204 95.2283 99.7813C94.5773 96.6786 92.2611 94.1121 89.5459 92.5852C85.8514 90.5076 81.439 90.3086 77.305 90.6157L77.8428 90.8378C73.1666 85.8341 66.0037 83.7215 59.2792 84.4608C52.1791 85.2414 45.8643 89.1903 41.3271 94.5901C36.2684 100.611 33.5117 108.117 32.4401 115.837C31.8823 120.005 31.6987 124.214 31.8914 128.414C31.8835 130.266 32.2014 132.106 32.8306 133.849C33.5486 135.545 34.8467 136.933 36.4942 137.765C38.383 138.674 40.3248 139.469 42.3091 140.146L48.899 142.696L61.8435 147.705L65.1384 148.98C66.0515 149.333 66.4471 147.868 65.5428 147.518Z" fill="#2F2E41"/>
<path d="M37.4188 95.9811C35.8643 95.9811 34.3448 95.5215 33.0523 94.6606C31.7598 93.7996 30.7525 92.5758 30.1576 91.1441C29.5627 89.7123 29.4071 88.1369 29.7103 86.6169C30.0136 85.097 30.7621 83.7009 31.8613 82.605C32.9605 81.5092 34.3609 80.763 35.8855 80.4606C37.4101 80.1583 38.9903 80.3135 40.4265 80.9065C41.8626 81.4996 43.0901 82.5039 43.9537 83.7924C44.8173 85.0809 45.2783 86.5959 45.2783 88.1456C45.2759 90.223 44.4471 92.2146 42.9737 93.6835C41.5003 95.1525 39.5025 95.9787 37.4188 95.9811ZM37.4188 81.8266C36.1652 81.8266 34.9398 82.1972 33.8974 82.8915C32.8551 83.5859 32.0427 84.5728 31.563 85.7274C31.0833 86.882 30.9577 88.1526 31.2023 89.3783C31.4469 90.6041 32.0505 91.73 32.937 92.6137C33.8234 93.4975 34.9528 94.0993 36.1823 94.3431C37.4118 94.5869 38.6862 94.4618 39.8443 93.9835C41.0025 93.5053 41.9924 92.6953 42.6889 91.6562C43.3853 90.6171 43.7571 89.3953 43.7571 88.1456C43.7552 86.4703 43.0868 84.8641 41.8985 83.6795C40.7103 82.4948 39.0992 81.8285 37.4188 81.8266V81.8266Z" fill="#2F2E41"/>
<path d="M168.801 144.538L151.789 131.567L138.779 148.527L155.79 161.498L168.801 144.538Z" fill="#F0F0F0"/>
<path d="M72.6597 28.7474C75.3475 28.7453 77.9984 29.3707 80.4002 30.5735C82.8021 31.7763 84.888 33.5231 86.491 35.6741L96.4242 22.7259L66.6197 0L43.8245 29.7137L56.6701 39.5085C57.9556 36.3301 60.1648 33.6073 63.0139 31.6898C65.863 29.7723 69.2221 28.7476 72.6597 28.7474V28.7474Z" fill="#F0F0F0"/>
<path d="M358.493 281H0.507062C0.372581 281 0.243607 280.947 0.148515 280.852C0.0534221 280.757 0 280.629 0 280.495C0 280.36 0.0534221 280.232 0.148515 280.137C0.243607 280.042 0.372581 279.989 0.507062 279.989H358.493C358.627 279.989 358.756 280.042 358.851 280.137C358.947 280.232 359 280.36 359 280.495C359 280.629 358.947 280.757 358.851 280.852C358.756 280.947 358.627 281 358.493 281Z" fill="#3F3D56"/>
<path d="M271.12 197.119H234.681C233.337 197.118 232.048 196.585 231.097 195.637C230.147 194.689 229.612 193.404 229.611 192.064V189.548C229.612 188.208 230.147 186.923 231.097 185.975C232.048 185.027 233.337 184.494 234.681 184.493H271.12C272.464 184.494 273.753 185.027 274.704 185.975C275.654 186.923 276.189 188.208 276.19 189.548V192.064C276.189 193.404 275.654 194.689 274.704 195.637C273.753 196.585 272.464 197.118 271.12 197.119V197.119Z" fill="#E3793F"/>
<path d="M274.959 192.269H238.52C237.109 192.267 235.756 191.707 234.757 190.712C233.759 189.717 233.198 188.368 233.196 186.961V184.444C233.198 183.037 233.759 181.688 234.757 180.693C235.756 179.698 237.109 179.138 238.52 179.136H274.959C276.371 179.138 277.724 179.698 278.722 180.693C279.72 181.688 280.282 183.037 280.283 184.444V186.961C280.282 188.368 279.72 189.717 278.722 190.712C277.724 191.707 276.371 192.267 274.959 192.269V192.269ZM238.52 180.148C237.378 180.149 236.282 180.602 235.474 181.407C234.666 182.213 234.212 183.305 234.21 184.444V186.961C234.212 188.1 234.666 189.192 235.474 189.998C236.282 190.803 237.378 191.256 238.52 191.257H274.959C276.102 191.256 277.197 190.803 278.005 189.998C278.813 189.192 279.268 188.1 279.269 186.961V184.444C279.268 183.305 278.813 182.213 278.005 181.407C277.197 180.602 276.102 180.149 274.959 180.148H238.52Z" fill="#3F3D56"/>
</g>
<defs>
<clipPath id="clip0">
<rect width="359" height="281" fill="white"/>
</clipPath>
</defs>
</svg>
