<svg width="419" height="343" viewBox="0 0 419 343" fill="none" xmlns="http://www.w3.org/2000/svg">
<g clip-path="url(#clip0)">
<path d="M311.766 268.83H181.852C179.777 268.828 177.789 268.004 176.322 266.539C174.856 265.074 174.031 263.088 174.028 261.016V167.715C174.031 165.643 174.856 163.656 176.322 162.191C177.789 160.726 179.777 159.902 181.852 159.9H311.766C313.84 159.902 315.828 160.726 317.295 162.191C318.762 163.656 319.587 165.643 319.589 167.715V261.016C319.587 263.088 318.762 265.074 317.295 266.539C315.828 268.004 313.84 268.828 311.766 268.83V268.83Z" fill="#E6E6E6"/>
<path d="M184.253 262.601H309.364C310.37 262.601 311.335 262.202 312.046 261.491C312.758 260.781 313.157 259.817 313.157 258.812V169.918C313.157 168.913 312.758 167.95 312.046 167.239C311.335 166.529 310.37 166.129 309.364 166.129H184.253C183.247 166.129 182.282 166.529 181.571 167.239C180.859 167.95 180.46 168.913 180.46 169.918V258.812C180.46 259.817 180.859 260.781 181.571 261.491C182.282 262.202 183.247 262.601 184.253 262.601Z" fill="white"/>
<path d="M137.737 143.572H7.82329C5.74914 143.57 3.76062 142.746 2.29398 141.281C0.827332 139.816 0.00234295 137.83 0 135.758V42.4567C0.0023417 40.3849 0.827332 38.3986 2.29398 36.9336C3.76062 35.4686 5.74914 34.6445 7.82329 34.6422H137.737C139.811 34.6445 141.8 35.4686 143.267 36.9336C144.733 38.3986 145.558 40.3849 145.561 42.4567V135.758C145.558 137.83 144.733 139.816 143.267 141.281C141.8 142.746 139.811 143.57 137.737 143.572V143.572Z" fill="#E6E6E6"/>
<path d="M10.2247 137.343H135.336C136.342 137.343 137.307 136.944 138.018 136.233C138.729 135.523 139.129 134.559 139.129 133.554V44.6603C139.129 43.6554 138.729 42.6917 138.018 41.9811C137.307 41.2706 136.342 40.8714 135.336 40.8714H10.2247C9.21875 40.8714 8.25396 41.2706 7.54261 41.9811C6.83127 42.6917 6.43164 43.6554 6.43164 44.6603V133.554C6.43164 134.559 6.83127 135.523 7.54261 136.233C8.25396 136.944 9.21875 137.343 10.2247 137.343Z" fill="white"/>
<path d="M294.451 193.75H214.535C214.16 193.75 213.789 193.824 213.442 193.967C213.096 194.111 212.781 194.321 212.516 194.585C212.251 194.85 212.041 195.164 211.898 195.51C211.754 195.856 211.68 196.227 211.68 196.601C211.68 196.976 211.754 197.347 211.898 197.692C212.041 198.038 212.251 198.353 212.516 198.617C212.781 198.882 213.096 199.092 213.442 199.235C213.789 199.379 214.16 199.452 214.535 199.452H294.451C295.208 199.452 295.934 199.152 296.469 198.617C297.005 198.083 297.305 197.358 297.305 196.601C297.305 195.845 297.005 195.12 296.469 194.585C295.934 194.051 295.208 193.75 294.451 193.75V193.75Z" fill="#E6E6E6"/>
<path d="M214.535 211.295C214.16 211.295 213.789 211.369 213.442 211.512C213.096 211.655 212.781 211.865 212.516 212.13C212.251 212.395 212.041 212.709 211.898 213.055C211.754 213.401 211.68 213.771 211.68 214.146C211.68 214.52 211.754 214.891 211.898 215.237C212.041 215.583 212.251 215.897 212.516 216.162C212.781 216.427 213.096 216.637 213.442 216.78C213.789 216.923 214.16 216.997 214.535 216.997H294.451C295.208 216.997 295.934 216.696 296.469 216.162C297.005 215.627 297.305 214.902 297.305 214.146C297.305 213.39 297.005 212.665 296.469 212.13C295.934 211.595 295.208 211.295 294.451 211.295H214.535Z" fill="#E6E6E6"/>
<path d="M214.535 228.839C213.778 228.839 213.052 229.14 212.516 229.674C211.981 230.209 211.68 230.934 211.68 231.69C211.68 232.446 211.981 233.172 212.516 233.706C213.052 234.241 213.778 234.541 214.535 234.541H294.451C295.208 234.541 295.934 234.241 296.469 233.706C297.005 233.172 297.305 232.446 297.305 231.69C297.305 230.934 297.005 230.209 296.469 229.674C295.934 229.14 295.208 228.839 294.451 228.839H214.535Z" fill="#E6E6E6"/>
<path d="M199.386 200.33C201.326 200.33 202.898 198.759 202.898 196.821C202.898 194.883 201.326 193.312 199.386 193.312C197.446 193.312 195.873 194.883 195.873 196.821C195.873 198.759 197.446 200.33 199.386 200.33Z" fill="#E3793F"/>
<path d="M199.386 217.874C201.326 217.874 202.898 216.303 202.898 214.365C202.898 212.427 201.326 210.856 199.386 210.856C197.446 210.856 195.873 212.427 195.873 214.365C195.873 216.303 197.446 217.874 199.386 217.874Z" fill="#E6E6E6"/>
<path d="M199.386 235.419C201.326 235.419 202.898 233.848 202.898 231.91C202.898 229.972 201.326 228.401 199.386 228.401C197.446 228.401 195.873 229.972 195.873 231.91C195.873 233.848 197.446 235.419 199.386 235.419Z" fill="#E6E6E6"/>
<path d="M262.616 196.601C262.616 196.976 262.542 197.346 262.399 197.692C262.256 198.038 262.045 198.353 261.78 198.617C261.515 198.882 261.201 199.092 260.854 199.235C260.508 199.379 260.137 199.452 259.762 199.452H214.638C213.933 199.463 213.247 199.218 212.709 198.764C212.17 198.31 211.813 197.676 211.705 196.98C211.652 196.578 211.685 196.168 211.803 195.779C211.921 195.391 212.12 195.031 212.388 194.726C212.656 194.42 212.986 194.175 213.356 194.007C213.726 193.838 214.128 193.751 214.535 193.75H259.762C260.519 193.75 261.245 194.051 261.78 194.585C262.316 195.12 262.616 195.845 262.616 196.601V196.601Z" fill="#E3793F"/>
<path d="M246.809 147.916C253.114 147.916 258.225 142.81 258.225 136.512C258.225 130.213 253.114 125.108 246.809 125.108C240.503 125.108 235.392 130.213 235.392 136.512C235.392 142.81 240.503 147.916 246.809 147.916Z" fill="#E6E6E6"/>
<path d="M252.443 137.425C252.948 134.317 250.835 131.388 247.723 130.883C244.611 130.379 241.679 132.49 241.174 135.598C240.669 138.707 242.782 141.635 245.894 142.14C249.006 142.644 251.938 140.533 252.443 137.425Z" fill="white"/>
<path d="M19.4733 86.3982C18.7231 86.3982 18.0037 86.6959 17.4732 87.2257C16.9428 87.7556 16.6448 88.4742 16.6448 89.2236C16.6448 89.9729 16.9428 90.6916 17.4732 91.2214C18.0037 91.7513 18.7231 92.049 19.4733 92.049H126.087C126.838 92.049 127.557 91.7513 128.087 91.2214C128.618 90.6916 128.916 89.9729 128.916 89.2236C128.916 88.4742 128.618 87.7556 128.087 87.2257C127.557 86.6959 126.838 86.3982 126.087 86.3982H19.4733Z" fill="#E6E6E6"/>
<path d="M19.4733 103.785C18.7231 103.785 18.0037 104.083 17.4732 104.613C16.9428 105.143 16.6448 105.861 16.6448 106.611C16.6448 107.36 16.9428 108.079 17.4732 108.608C18.0037 109.138 18.7231 109.436 19.4733 109.436H126.087C126.838 109.436 127.557 109.138 128.087 108.608C128.618 108.079 128.916 107.36 128.916 106.611C128.916 105.861 128.618 105.143 128.087 104.613C127.557 104.083 126.838 103.785 126.087 103.785H19.4733Z" fill="#E6E6E6"/>
<path d="M67.1232 122.042C66.3731 122.042 65.6536 122.339 65.1231 122.869C64.5927 123.399 64.2947 124.118 64.2947 124.867C64.2947 125.616 64.5927 126.335 65.1231 126.865C65.6536 127.395 66.3731 127.692 67.1232 127.692H78.4374C79.1875 127.692 79.907 127.395 80.4374 126.865C80.9679 126.335 81.2659 125.616 81.2659 124.867C81.2659 124.118 80.9679 123.399 80.4374 122.869C79.907 122.339 79.1875 122.042 78.4374 122.042H67.1232Z" fill="#E3793F"/>
<path d="M57.6193 50.5222C57.3886 50.5224 57.1673 50.6141 57.0042 50.777C56.841 50.94 56.7493 51.161 56.749 51.3915V73.4599C56.7493 73.6904 56.841 73.9114 57.0042 74.0744C57.1673 74.2374 57.3886 74.329 57.6193 74.3293H87.9411C88.1719 74.329 88.3931 74.2374 88.5563 74.0744C88.7194 73.9114 88.8112 73.6904 88.8114 73.4599V51.3915C88.8112 51.161 88.7194 50.94 88.5563 50.777C88.3931 50.6141 88.1719 50.5224 87.9411 50.5222L57.6193 50.5222Z" fill="#E3793F"/>
<path d="M72.7804 64.7664C75.4241 64.7664 77.5672 62.6257 77.5672 59.985C77.5672 57.3443 75.4241 55.2036 72.7804 55.2036C70.1368 55.2036 67.9937 57.3443 67.9937 59.985C67.9937 62.6257 70.1368 64.7664 72.7804 64.7664Z" fill="white"/>
<path d="M80.6133 72.1558C80.615 72.9115 80.436 73.6566 80.0911 74.3292H65.4697C65.0971 73.6003 64.9181 72.788 64.9499 71.9701C64.9816 71.1522 65.223 70.3562 65.651 69.6582C66.079 68.9602 66.6792 68.3837 67.3942 67.9838C68.1091 67.584 68.9149 67.3741 69.7343 67.3745H75.8265C77.0953 67.3737 78.3125 67.8765 79.2102 68.7722C80.1078 69.6679 80.6126 70.8831 80.6133 72.1505V72.1558Z" fill="white"/>
<path d="M72.7804 64.7664C75.4241 64.7664 77.5672 62.6257 77.5672 59.985C77.5672 57.3443 75.4241 55.2036 72.7804 55.2036C70.1368 55.2036 67.9937 57.3443 67.9937 59.985C67.9937 62.6257 70.1368 64.7664 72.7804 64.7664Z" fill="white"/>
<path d="M80.6133 72.1558C80.615 72.9115 80.436 73.6566 80.0911 74.3292H65.4697C65.0971 73.6003 64.9181 72.788 64.9499 71.9701C64.9816 71.1522 65.223 70.3562 65.651 69.6582C66.079 68.9602 66.6792 68.3837 67.3942 67.9838C68.1091 67.584 68.9149 67.3741 69.7343 67.3745H75.8265C77.0953 67.3737 78.3125 67.8765 79.2102 68.7722C80.1078 69.6679 80.6126 70.8831 80.6133 72.1505V72.1558Z" fill="white"/>
<path d="M72.7802 22.603C79.0288 22.603 84.0944 17.5432 84.0944 11.3015C84.0944 5.05986 79.0288 0 72.7802 0C66.5316 0 61.4661 5.05986 61.4661 11.3015C61.4661 17.5432 66.5316 22.603 72.7802 22.603Z" fill="#E6E6E6"/>
<path d="M72.7801 16.9523C75.9044 16.9523 78.4372 14.4223 78.4372 11.3015C78.4372 8.18069 75.9044 5.65076 72.7801 5.65076C69.6558 5.65076 67.123 8.18069 67.123 11.3015C67.123 14.4223 69.6558 16.9523 72.7801 16.9523Z" fill="#E3793F"/>
<path d="M354.712 336.85L349.292 336.85L346.714 315.965L354.714 315.966L354.712 336.85Z" fill="#FFB8B8"/>
<path d="M345.42 335.303H355.874V341.877H338.838C338.838 341.014 339.008 340.159 339.339 339.361C339.67 338.564 340.155 337.839 340.766 337.228C341.377 336.618 342.102 336.133 342.901 335.803C343.7 335.473 344.555 335.303 345.42 335.303V335.303Z" fill="#2F2E41"/>
<path d="M383.929 336.85L378.509 336.85L375.931 315.965L383.931 315.966L383.929 336.85Z" fill="#FFB8B8"/>
<path d="M374.637 335.303H385.091V341.877H368.055C368.055 341.014 368.225 340.159 368.556 339.361C368.887 338.564 369.372 337.839 369.983 337.228C370.594 336.618 371.32 336.133 372.118 335.803C372.917 335.473 373.773 335.303 374.637 335.303V335.303Z" fill="#2F2E41"/>
<path d="M368.055 188.385C374.486 188.385 379.7 183.177 379.7 176.753C379.7 170.329 374.486 165.121 368.055 165.121C361.623 165.121 356.409 170.329 356.409 176.753C356.409 183.177 361.623 188.385 368.055 188.385Z" fill="#FFB8B8"/>
<path d="M328.235 252.615C328.316 251.971 328.538 251.352 328.885 250.803C329.231 250.254 329.694 249.787 330.241 249.436C330.787 249.084 331.404 248.857 332.049 248.77C332.693 248.683 333.348 248.737 333.969 248.931L340.477 241.138L346.182 243.933L336.837 254.809C336.443 255.829 335.688 256.669 334.716 257.17C333.743 257.672 332.62 257.799 331.56 257.528C330.5 257.258 329.576 256.608 328.963 255.703C328.35 254.797 328.091 253.698 328.235 252.615V252.615Z" fill="#FFB8B8"/>
<path d="M384.247 260.496C383.97 259.909 383.825 259.269 383.822 258.619C383.819 257.97 383.959 257.328 384.232 256.739C384.505 256.149 384.903 255.627 385.4 255.208C385.897 254.789 386.479 254.484 387.107 254.315L388.413 244.251L394.73 243.552L392.685 257.739C392.9 258.81 392.714 259.924 392.163 260.868C391.611 261.812 390.732 262.521 389.692 262.861C388.652 263.201 387.523 263.148 386.52 262.712C385.516 262.277 384.708 261.488 384.247 260.497L384.247 260.496Z" fill="#FFB8B8"/>
<path d="M377.787 198.724C378.406 197.93 379.224 197.313 380.158 196.935C381.093 196.558 382.11 196.433 383.108 196.574C384.106 196.715 385.049 197.116 385.842 197.737C386.635 198.358 387.25 199.177 387.625 200.112L397.17 223.906C398.146 226.338 398.457 228.985 398.072 231.576L394.962 252.49C394.922 252.759 394.824 253.017 394.675 253.246C394.526 253.474 394.329 253.668 394.098 253.814C393.867 253.959 393.607 254.053 393.337 254.089C393.066 254.125 392.791 254.102 392.53 254.022L388.433 252.766C388.009 252.636 387.644 252.361 387.402 251.99C387.159 251.619 387.055 251.174 387.107 250.734C388.552 238.422 386.642 225.948 381.576 214.63L377.077 204.576C376.652 203.628 376.494 202.583 376.619 201.552C376.744 200.521 377.148 199.543 377.787 198.724V198.724Z" fill="#E3793F"/>
<path d="M370.89 188.385C372.643 188.423 374.383 188.09 375.998 187.408C377.613 186.725 379.064 185.71 380.258 184.427C381.452 183.145 382.36 181.624 382.924 179.966C383.487 178.308 383.693 176.55 383.528 174.806C383.362 173.063 382.83 171.374 381.964 169.851C381.099 168.328 379.921 167.006 378.507 165.97C377.094 164.934 375.477 164.209 373.763 163.842C372.049 163.475 370.276 163.474 368.562 163.84C366.001 162.287 363.023 161.242 360.039 161.507C357.055 161.773 354.104 163.543 352.988 166.32C351.872 169.098 353.071 172.759 355.846 173.887C357.625 174.611 359.633 174.26 361.532 173.968C363.43 173.676 365.501 173.486 367.153 174.464C368.806 175.443 369.548 178.066 368.069 179.29C367.284 179.964 366.724 180.861 366.463 181.861C366.202 182.861 366.252 183.917 366.606 184.888C367.35 186.809 369.38 188.352 370.89 188.385Z" fill="#2F2E41"/>
<path d="M385.339 252.155L387.404 330.461C387.411 330.722 387.364 330.982 387.266 331.224C387.167 331.466 387.02 331.685 386.833 331.867C386.646 332.05 386.423 332.191 386.178 332.284C385.934 332.376 385.673 332.417 385.412 332.403L378.607 332.056C378.173 332.034 377.759 331.864 377.436 331.574C377.112 331.283 376.899 330.891 376.83 330.462L368.736 279.601C368.702 279.384 368.592 279.185 368.427 279.039C368.261 278.894 368.05 278.81 367.829 278.803C367.609 278.797 367.393 278.867 367.218 279.002C367.044 279.137 366.922 279.328 366.874 279.544L355.918 328.513C355.86 328.775 355.746 329.021 355.585 329.236C355.424 329.45 355.219 329.629 354.984 329.758C354.749 329.888 354.489 329.966 354.222 329.988C353.954 330.01 353.685 329.975 353.432 329.885L346.678 329.473C346.288 329.334 345.953 329.071 345.726 328.725C345.499 328.378 345.393 327.966 345.422 327.553L351.317 251.414L385.339 252.155Z" fill="#2F2E41"/>
<path d="M388.653 214.962C389.793 203.096 381.058 192.362 369.154 191.518C364.025 191.154 356.062 191.024 353.437 197.74C345.53 217.969 359.372 217.478 354.603 235.005C349.833 252.531 345.621 253.536 352.165 254.802C358.709 256.067 388.136 263.538 386.928 251.202C386.185 243.619 387.517 226.799 388.653 214.962Z" fill="#E3793F"/>
<path d="M354.837 195.682C355.777 195.319 356.796 195.209 357.792 195.365C358.788 195.521 359.725 195.936 360.508 196.569C361.292 197.202 361.895 198.031 362.255 198.971C362.616 199.911 362.722 200.929 362.563 201.923L358.846 225.126C358.211 229.094 356.531 232.821 353.979 235.927L341.908 250.621C341.734 250.832 341.518 251.003 341.272 251.122C341.027 251.242 340.758 251.307 340.485 251.313C340.212 251.319 339.941 251.266 339.69 251.158C339.439 251.05 339.215 250.889 339.032 250.687L336.165 247.506C335.868 247.177 335.696 246.754 335.679 246.311C335.662 245.868 335.801 245.433 336.072 245.082L336.917 243.987C343.939 234.884 348.369 224.055 349.739 212.644L351.217 200.338C351.341 199.307 351.743 198.329 352.381 197.508C353.019 196.688 353.868 196.057 354.837 195.682V195.682Z" fill="#E3793F"/>
<path d="M418.526 343H296.198C296.072 343 295.952 342.95 295.863 342.861C295.774 342.772 295.724 342.652 295.724 342.526C295.724 342.401 295.774 342.28 295.863 342.191C295.952 342.103 296.072 342.053 296.198 342.053H418.526C418.652 342.053 418.772 342.103 418.861 342.191C418.95 342.28 419 342.401 419 342.526C419 342.652 418.95 342.772 418.861 342.861C418.772 342.95 418.652 343 418.526 343Z" fill="#CCCCCC"/>
</g>
<defs>
<clipPath id="clip0">
<rect width="419" height="343" fill="white"/>
</clipPath>
</defs>
</svg>
