<svg width="352" height="258" viewBox="0 0 352 258" fill="none" xmlns="http://www.w3.org/2000/svg">
<g clip-path="url(#clip0)">
<path d="M327.008 258V228.703C327.008 228.703 338.46 249.473 327.008 258Z" fill="#F1F1F1"/>
<path d="M327.715 257.995L306.068 238.182C306.068 238.182 329.16 243.818 327.715 257.995Z" fill="#F1F1F1"/>
<path d="M234.198 180.613C234.15 180.076 234.22 179.536 234.404 179.03C234.588 178.523 234.881 178.063 235.263 177.682C235.644 177.301 236.105 177.008 236.612 176.823C237.12 176.639 237.662 176.568 238.2 176.615L242.102 169.15L247.23 170.408L241.571 180.872C241.432 181.768 240.968 182.582 240.267 183.16C239.567 183.738 238.678 184.039 237.769 184.007C236.86 183.975 235.994 183.612 235.336 182.986C234.678 182.361 234.273 181.516 234.198 180.613H234.198Z" fill="#FFB7B7"/>
<path d="M257.492 253.331L253.164 253.33L251.105 236.69L257.492 236.69L257.492 253.331Z" fill="#FFB7B7"/>
<path d="M258.595 257.512L244.642 257.512V257.336C244.642 255.9 245.214 254.523 246.233 253.508C247.251 252.492 248.632 251.922 250.073 251.922H250.073L258.595 251.922L258.595 257.512Z" fill="#2F2E41"/>
<path d="M292.296 250.108L288.121 251.243L281.743 235.728L287.905 234.053L292.296 250.108Z" fill="#FFB7B7"/>
<path d="M294.464 253.853L281.002 257.513L280.956 257.343C280.577 255.957 280.766 254.479 281.48 253.232C282.195 251.985 283.377 251.072 284.767 250.695L284.767 250.694L292.989 248.459L294.464 253.853Z" fill="#2F2E41"/>
<path d="M249.592 181.448L247.433 214.128L252.07 250.793L259.665 248.482L259.985 215.722L266.061 196.831L284.05 247.286L292.284 244.258L285.489 211.498L281.651 180.731L249.592 181.448Z" fill="#2F2E41"/>
<path d="M270.577 124.062L257.787 125.942L253.179 130.485L251.749 146.809L252.637 161.268L248.933 186.765C248.933 186.765 258.248 181.61 265.467 188.063C272.685 194.517 282.786 189.204 282.994 184.911L270.577 124.062Z" fill="#CBCBCB"/>
<path d="M264.083 144.534L264.083 144.516L270.436 123.868L270.518 123.863C270.971 123.833 281.623 123.207 284.006 128.451L284.017 128.477L283.294 149.934L284.29 183.54L264.589 187.794L264.445 187.825L264.083 144.534Z" fill="#2F2E41"/>
<path d="M257.041 143.107L258.207 125.603C249.917 126.117 250.042 131.977 250.052 132.232L249.961 158.415L248.301 186.425L254.337 185.974L257.041 143.107Z" fill="#2F2E41"/>
<path d="M238.349 174.957L245.709 157.928L250.845 148.524L253.527 165.488L244.216 179.413L238.349 174.957Z" fill="#2F2E41"/>
<path d="M268.765 168.691C268.877 168.165 269.104 167.669 269.43 167.24C269.756 166.81 270.172 166.457 270.649 166.205C271.126 165.953 271.653 165.808 272.193 165.781C272.732 165.754 273.271 165.845 273.771 166.048L279.709 160.064L284.237 162.774L275.733 171.108C275.335 171.923 274.651 172.565 273.81 172.911C272.97 173.257 272.031 173.283 271.172 172.985C270.313 172.688 269.594 172.086 269.15 171.294C268.706 170.503 268.569 169.577 268.765 168.691V168.691Z" fill="#FFB7B7"/>
<path d="M273.758 163.864L285.863 150.624L277.85 139.224L278.675 133.65L283.398 127.834L283.49 127.953C283.993 128.602 295.824 143.925 296.163 149.726C296.504 155.548 279.5 170.275 278.776 170.899L278.675 170.986L273.758 163.864Z" fill="#2F2E41"/>
<path d="M263.197 122.628C267.949 122.628 271.802 118.787 271.802 114.049C271.802 109.312 267.949 105.471 263.197 105.471C258.445 105.471 254.593 109.312 254.593 114.049C254.593 118.787 258.445 122.628 263.197 122.628Z" fill="#FFB7B7"/>
<path d="M271.29 107.192L271.707 106.355L269.608 105.315C269.608 105.315 267.293 101.559 263.103 102.615C258.913 103.67 257.028 104.302 257.028 104.302L254.934 105.352L255.985 106.394L254.1 107.026L255.359 107.65L253.894 108.489L254.683 112.794C254.683 112.794 255.993 109.529 258.512 110.777C261.03 112.024 265.637 110.132 265.637 110.132L269.64 117.854C269.64 117.854 270.465 115.147 271.938 115.869C271.938 115.869 275.699 109.897 271.29 107.192Z" fill="#2F2E41"/>
<path d="M173.931 155.757L43.0865 191.733L0 35.9756L130.845 0L173.931 155.757Z" fill="white"/>
<path d="M173.931 155.757L43.0865 191.733L0 35.9756L130.845 0L173.931 155.757ZM44.7582 188.797L170.986 154.091L129.173 2.93595L2.94491 37.6422L44.7582 188.797Z" fill="#F1F1F1"/>
<path d="M102.37 69.7767L69.5712 78.7946C69.1085 78.9213 68.6143 78.8598 68.1971 78.6236C67.7798 78.3875 67.4735 77.996 67.3454 77.535L58.3 44.8358C58.173 44.3746 58.2347 43.8819 58.4715 43.4659C58.7084 43.0499 59.1011 42.7446 59.5635 42.6169L92.3622 33.5989C92.8249 33.4722 93.319 33.5337 93.7363 33.7699C94.1536 34.006 94.4598 34.3975 94.5879 34.8585L103.633 67.5577C103.76 68.019 103.699 68.5116 103.462 68.9276C103.225 69.3436 102.832 69.649 102.37 69.7767V69.7767ZM59.7559 43.3126C59.4785 43.3892 59.2428 43.5724 59.1007 43.822C58.9586 44.0716 58.9216 44.3672 58.9978 44.644L68.0432 77.3431C68.1201 77.6197 68.3038 77.8547 68.5542 77.9963C68.8046 78.138 69.1011 78.1749 69.3787 78.0989L102.177 69.081C102.455 69.0043 102.69 68.8211 102.833 68.5715C102.975 68.3219 103.012 68.0263 102.935 67.7496L93.89 35.0504C93.8132 34.7738 93.6294 34.5389 93.3791 34.3972C93.1287 34.2555 92.8322 34.2187 92.5546 34.2947L59.7559 43.3126Z" fill="#E5E5E5"/>
<path d="M94.0557 76.3674L61.257 85.3854C60.8406 85.4994 60.3958 85.4441 60.0203 85.2315C59.6447 85.019 59.3691 84.6666 59.2538 84.2517L50.2083 51.5526C50.094 51.1374 50.1495 50.694 50.3627 50.3196C50.5759 49.9452 50.9293 49.6704 51.3455 49.5555L84.1442 40.5375C84.5606 40.4235 85.0053 40.4789 85.3809 40.6914C85.7564 40.9039 86.0321 41.2563 86.1473 41.6712L95.1928 74.3703C95.3071 74.7855 95.2516 75.2289 95.0384 75.6033C94.8253 75.9777 94.4718 76.2525 94.0557 76.3674V76.3674Z" fill="#E3793F"/>
<path d="M132.051 80.8315L40.5229 105.997L41.4984 109.523L133.027 84.3577L132.051 80.8315Z" fill="#F1F1F1"/>
<path d="M134.595 90.0253L43.0664 115.191L44.0419 118.717L135.57 93.5515L134.595 90.0253Z" fill="#F1F1F1"/>
<path d="M137.138 99.2194L45.6099 124.385L46.5853 127.911L138.114 102.746L137.138 99.2194Z" fill="#F1F1F1"/>
<path d="M141.614 115.401L50.0859 140.566L51.0614 144.093L142.59 118.927L141.614 115.401Z" fill="#F1F1F1"/>
<path d="M144.157 124.595L52.6292 149.76L53.6046 153.287L145.133 128.121L144.157 124.595Z" fill="#F1F1F1"/>
<path d="M146.701 133.789L55.1724 158.954L56.1478 162.481L147.676 137.315L146.701 133.789Z" fill="#F1F1F1"/>
<path d="M215.816 191.213H80.0862V29.6404H215.816V191.213Z" fill="white"/>
<path d="M215.816 191.213H80.0862V29.6404H215.816V191.213ZM82.4807 188.825H213.421V32.0276H82.4807V188.825Z" fill="#E5E5E5"/>
<path d="M191.104 99.0984H113.501V102.756H191.104V99.0984Z" fill="#E3793F"/>
<path d="M191.104 108.609H113.501V112.267H191.104V108.609Z" fill="#E3793F"/>
<path d="M191.104 118.119H113.501V121.777H191.104V118.119Z" fill="#E3793F"/>
<path d="M107.192 103.85C108.515 103.85 109.587 102.782 109.587 101.463C109.587 100.145 108.515 99.0759 107.192 99.0759C105.87 99.0759 104.798 100.145 104.798 101.463C104.798 102.782 105.87 103.85 107.192 103.85Z" fill="#E3793F"/>
<path d="M191.104 58.1179H113.501V61.7758H191.104V58.1179Z" fill="#E5E5E5"/>
<path d="M191.104 67.6282H113.501V71.2861H191.104V67.6282Z" fill="#E5E5E5"/>
<path d="M191.104 77.1387H113.501V80.7966H191.104V77.1387Z" fill="#E5E5E5"/>
<path d="M107.192 62.4719C108.515 62.4719 109.587 61.4031 109.587 60.0847C109.587 58.7663 108.515 57.6975 107.192 57.6975C105.87 57.6975 104.798 58.7663 104.798 60.0847C104.798 61.4031 105.87 62.4719 107.192 62.4719Z" fill="#E5E5E5"/>
<path d="M191.104 140.477H113.501V144.134H191.104V140.477Z" fill="#E5E5E5"/>
<path d="M191.104 149.987H113.501V153.645H191.104V149.987Z" fill="#E5E5E5"/>
<path d="M191.104 159.498H113.501V163.156H191.104V159.498Z" fill="#E5E5E5"/>
<path d="M107.192 144.831C108.515 144.831 109.587 143.762 109.587 142.444C109.587 141.125 108.515 140.056 107.192 140.056C105.87 140.056 104.798 141.125 104.798 142.444C104.798 143.762 105.87 144.831 107.192 144.831Z" fill="#E5E5E5"/>
<path d="M209.479 205.126C224.8 205.126 237.221 192.743 237.221 177.468C237.221 162.193 224.8 149.81 209.479 149.81C194.157 149.81 181.737 162.193 181.737 177.468C181.737 192.743 194.157 205.126 209.479 205.126Z" fill="#E3793F"/>
<path d="M217.165 175.703V170.411C217.166 169.405 216.967 168.408 216.581 167.477C216.196 166.547 215.629 165.701 214.916 164.989C214.202 164.277 213.354 163.712 212.421 163.327C211.488 162.941 210.489 162.743 209.479 162.743C208.469 162.743 207.469 162.941 206.536 163.327C205.603 163.712 204.756 164.277 204.042 164.989C203.328 165.701 202.762 166.547 202.376 167.477C201.99 168.408 201.792 169.405 201.793 170.411V175.703C200.765 175.75 199.795 176.189 199.084 176.93C198.373 177.671 197.976 178.656 197.976 179.682V192.187H220.982V179.682C220.981 178.656 220.584 177.671 219.873 176.93C219.162 176.189 218.192 175.75 217.165 175.703V175.703ZM209.479 165.447C210.799 165.448 212.065 165.972 212.998 166.902C213.932 167.833 214.457 169.095 214.458 170.411V175.694H204.499V170.411C204.501 169.095 205.026 167.833 205.959 166.902C206.893 165.972 208.158 165.448 209.479 165.447Z" fill="white"/>
<path d="M211.547 181.879C211.547 181.524 211.455 181.174 211.279 180.865C211.104 180.555 210.851 180.296 210.546 180.112C210.241 179.929 209.893 179.827 209.536 179.817C209.18 179.808 208.827 179.89 208.512 180.056C208.197 180.222 207.93 180.467 207.737 180.766C207.545 181.065 207.434 181.409 207.414 181.764C207.394 182.119 207.467 182.473 207.625 182.792C207.783 183.11 208.02 183.383 208.315 183.583V188.064H210.642V183.583C210.92 183.394 211.149 183.14 211.306 182.843C211.464 182.546 211.547 182.215 211.547 181.879V181.879Z" fill="#E3793F"/>
<path d="M351.594 257.835H196.824C196.716 257.835 196.613 257.793 196.536 257.717C196.46 257.641 196.417 257.538 196.417 257.43C196.417 257.323 196.46 257.22 196.536 257.144C196.613 257.068 196.716 257.025 196.824 257.025H351.594C351.702 257.025 351.805 257.068 351.881 257.144C351.957 257.22 352 257.323 352 257.43C352 257.538 351.957 257.641 351.881 257.717C351.805 257.793 351.702 257.835 351.594 257.835Z" fill="#CBCBCB"/>
</g>
<defs>
<clipPath id="clip0">
<rect width="352" height="258" fill="white"/>
</clipPath>
</defs>
</svg>
